<?xml version="1.0" encoding="utf-8"?>
<!-- Generator: Adobe Illustrator 25.0.0, SVG Export Plug-In . SVG Version: 6.00 Build 0)  -->
<svg version="1.1" xmlns="http://www.w3.org/2000/svg" xmlns:xlink="http://www.w3.org/1999/xlink" x="0px" y="0px"
	 viewBox="0 0 1080 1920" style="enable-background:new 0 0 1080 1920;" xml:space="preserve">
<style type="text/css">
	.st0{fill:#E0D8D2;}
	.st1{fill:#BCD4E8;stroke:#5F96C5;stroke-width:2;stroke-miterlimit:10;}
	.st2{fill:#5F96C5;stroke:#5F96C5;stroke-width:2;stroke-miterlimit:10;}
	.st3{fill:#B44A29;}
	.st4{fill:#B44A29;stroke:#3D3831;stroke-width:3;stroke-miterlimit:10;}
	.st5{fill:#E0D8D2;stroke:#3D3831;stroke-width:2;stroke-miterlimit:4.2926;}
	.st6{fill:#E0D8D2;stroke:#B44A29;stroke-width:2;stroke-miterlimit:4.2926;}
	.st7{fill:none;}
	.st8{font-family:'MyriadPro-Regular';}
	.st9{font-size:23px;}
	.st10{font-family:'MyriadPro-BoldSemiExt';}
	.st11{display:none;}
	.st12{display:inline;fill:none;}
	.st13{display:inline;}
	
		.st14{display:inline;fill:#FFAB2B;stroke:#B57900;stroke-width:2;stroke-linecap:round;stroke-linejoin:round;stroke-miterlimit:10;}
</style>
<g id="fondo">
	<rect x="-0.5" y="-0.5" class="st0" width="1081" height="1920"/>
</g>
<g id="Layer_1">
	<path id="CL-AI_1_" class="st1" d="M469,1283.6l0.6-0.1l1.2-2.5l-0.4-1l-2.3-0.5l-0.8,0.8l-1,0.2l-3.8-1.8l-2-2.4l-1.8-1.9l-3-2.4
		l-1.2-0.5l-0.8,0.2l-1.1,1.3l-0.7,1l-1.4,0.2l-1.8-0.2l-0.9-0.2l-0.7-0.6l-0.2-1.2l0.6-2.7l1-0.2l2.3-0.1l0.7-0.3l1.4-2.1l-2.6-3.9
		l-1.1-2.3l0.3-1.9l0.8-1.4l1.1-0.5l0.8-0.1l2.4,0.5h1.2l3.4-1.2l7.6-4.2l2-1.8l4.6-4.1l1.5-3.1l1.1-2.8l3.2-8.7l0.2-4.9l-2.1,1.9
		l-3,2.2l-4-3l-3-2.7v-5.1l-3.6-1.7l-2.5-0.8l-1.2-0.2l-1.6-0.3l-1.1-0.6l-3.8-4.1l-0.3-1.7l0.4-1.7l2.7-2.5l2.8-2.5l0-2.1l1.3-2.9
		l3.3-6.7l1,0l1.7-0.4l3.9-1.4l-0.2-1.5l0,0l2.6,0.1l0.8,0.6l2.4,0.6l7.5,1.3l0.5-2.2l1.3-1.9l1.7-1.7l1.3-0.9l1.9,0.7l0.2,2.3l3,5
		l0.8,0.4l1.7,0.2l1.1,0.8l1.3,1.7l0.7,1.5l0.3,2.1l5.4-0.6l0.5-2.2l5.4-2.7l1.3-0.1l2.9,1.4l0,0l1.9,2.7l0.1,1.2l-0.4,1l-3.5,5.6
		l-1.3,1.4l-1.5,4.3l0.7,1.5l0.2,1.4l-0.1,6.2l-1.8,1.3l-0.4,1.1l1,1.5l1.9,0.4l5.9,0.1h3.1l2.5-0.4l3.1-0.1l8,1.6l1.3,1.2l2,4.6
		l-0.5,1.9l-0.9,1l-1.7,0.3l-1.6,3.9l0.2,1.4l0.3,1.6l-0.2,1.6l-2,2.9l-1.1,0.3h-0.9l-1.2-0.2l-1-0.5l-1.8-1.4l-1.1-0.8l-0.8,0.2h-1
		l-1.4,0.2l-2,1.1l-0.8,0.3l-0.9,0.2l-0.8-0.3l-0.8-0.4l-0.8-0.3l-2.2-0.5l-0.9,0.4l-0.7,1.2l-1.1,0.4l-4.3-0.5l-0.9-0.4l-0.8-0.4
		l-1-0.5l-1.1-0.3l-1.1,0.7l-0.2,1.1l0.6,6.2l5.1,1.1l4.9,0.5l2.6,0.4l6.1,2.1l1.3,1.3l2,4.2l6.5,8.5l1.2,4l-6.5,9.4l-5.3,2.5
		l-0.9-0.1l-0.8,0.1l-0.9,0.2l-1.5,0.6l-1.5,1.1l-1.2,5.3l-0.4,4.1l1.5,6.6l1.1,0.7l1.2,0.4l1.7,0.8l0.8,1.1l0.9,4.1l-1.3,1.1
		l-0.2,0.1l-0.8,0.7l-1.3,1.8l-0.8,1.3l-0.8,1.6l-1,1.1l-1,0.5l-1.2,0.3l-1,0.1l-2,0.9l2.6,2.9l1.3,0.5l1.3,0.7l0.8,1.4l0.2,1.4
		l0.6,8.9l1.4,3.4l0.7,2.7l0.2,6.4l-0.2,1.8l-0.5,1.1l-4.9,4.7l-1.4,0.6l-2.6,0.2l-0.8,0.9l-1.4,12.3l3.2,4.6l1.2,1.4l0.4,1.9
		l-0.6,2.6l-0.6,0.8l-5.2,2.5l-2.5,4.3l-3,3.3l-1.4,0.4l-1.4-0.5l-1,0l-1.4,0.5l-0.8,0.4l-0.8,0.5l-0.6,0.8l-0.4,1.6l0.7,0.7
		l1.3,0.9l-0.8,5.2l-0.4,1.2l-0.5,1.1l-2,3.1l-0.9,1.7l-1.1,2.4l-3.1,8.7l0.1,1.5l0.6,1.1l1.4,1.6l1.1,0.7l1.7,0.4l3.3,4l0.8,6.5
		l0.3,9.1l-5.2,3.3l-2.5,1l-2.6,1.4l-0.8,0.6l-0.7,0.9l-0.3,1.2l0.9,4.1l0.2,1.3l0.5,3.7l1.6,4.6v4.1l-0.4,1.4l-1,1.5l-4.8,4.8
		l-1.1,1l-0.7,0.5l-1,0.6l-1.2,0.5l-1.8,0.4l-1.6-0.1l-0.8,0.2l-1.4,0.6l-1.2,0.8l-0.9,1.2l-2.8,4.2l-3.9,9.3l0.1,1.3l0.3,0.6l0,0
		l-0.7-0.5l-11.7-10.1l-9.4-8.1l-13.7-11.9l0,0l-0.1-0.6l-1.9-1.2l-2.2-0.4l-1.1,0.1l-1.4,0.6l-0.8,0.4l-0.9,0.4l-1.4-0.1l-2.3-3
		l-1-3.9l1.8-2.6l3.9-4l2.1-1.4l2,1.2l4.1,3l0.8-0.8l0.3-7.1l-3.5-1.1l-1-1.3l-0.7-0.7l-0.9-0.2l-2.3-0.3l1-1.1l3.5-0.8l-5.8-2.2
		l-5.3-4.8l-3.6-4.1l-3.7-2.7l-1.5,0l-1-0.4l-0.4-2.8l1-1.7l4.2-2.6l4.4,1.8l2.6,2.1l0.8,1.4l0.6,1.2l0.7,2.2l0.8,5l2.4,2.5l1.2-0.4
		l-3-7.5l-2.4-4.4l-0.2-1.1l1-0.6l4.1-0.2l4.9,0.2l1,0.7l1.2,1.5l2.2,0.9l4.2-0.1l3.4-1l7.1,6.4l0.1,2.8l1.4,3.6l0.6-2.2l1.9-1.9
		l1.9,0.2l0.9,0.3l1,0.7l1.8,0.1l1.9-1.8l0.6-0.8l0.3-1.6l0.1-2l-0.5-1.3l-0.3,3.2l-0.8,1.1l-1.6,1.3l-0.8,0.2l-1-0.4l-3.4-2.2
		l-3.7-4.3l-2.6-3.9l-0.4-4.5h3.9l0.3,1.9l1.3,1.7l0.7,0.5l0.9,0.4l2,0.6l8.4,0.5l-1.7-1.5l-2.8-0.9l-1.4-0.1l-1,0.1l-1.4,0.4
		l-1.5-0.3l-1.7-1.3l-7.8-9.7l-1.2-3l0.2-1.5l0.8-1.2l1.2-1.2l1.1-1.7l-0.8-3.9l-2-2.1l-1.8,3.7l1.5,1.1l0.2,1.3l-1.7,8.8l-0.8,0.9
		l-1,0.6l-4.7,2.1l-3.2-0.6l-0.8-0.4l-1-2.5l-1.3-0.2l-2-0.1l-6.7-1.4l-3.2-0.7l-3.4,1l-1,0.6l-1.9,0.3l-2.8-0.4l-1.1-0.4l-2.7-1.4
		l-1.1-1.8l5.4-8.3l1.7-1.2l0.8-0.1l3.4,0.4l1.1,0.4l2.2,1.8l0.9,3l1.4,3.7l1.6,1.9l1.4,0.7l1.5,0.2l0.9-0.4l-1.1,0l-2-0.6l-1.1-1.1
		l-0.6-2.2l1.6-2.8l3.5-0.9l2.1,0.9h1l1.7-0.7l-0.6-4.7l-2.7,1.4l-1.5,1.5l-4.7,1l-0.8-0.2l-8.4-8.8l-0.4-1.1l2.2-3.9l4.1-4.1
		l0.9-1.8l0.6-1.3l0.5-1.4l5-0.8l0.8,0.4l0.4,1.6l0.1,2l1.9,3.8l0.3,0.3l-0.3-0.8l-1.1-3.5v-3.1l0.4-1.8l0.5-0.9l2.8-2.7l4.1-6.3
		l-2.9-2.9l-0.9-0.4l-0.9-0.1l-0.7,0.4l-1.1,0.7l-1.1-0.4l-4.1-6.3l-0.7-3.2l-0.1-1.3l-2.8-1.2l-10.6,1l-0.1,3.1l1.2-0.3l1.5-0.1
		l4.3,1.3l-0.5,1.5l-1.1,0.8l-1,0.1l-2.4-0.3l-3-1.3l-9.1-4.3l-4.6-2.3l-2.5-5.1l-0.1-1.6l0.5-1.3l2-2.6l2.6-2.7l-0.2-3.6l-0.9,1.4
		l-0.6,1.7l-3.7,4l-1.4,1.2l-2.6,1.7l-6.1,1.7l-1.5-0.3l-1.5-0.1l-2.8,0.9l-2.5,1.2l-1,0.8l-2.1,3.5l0.8,0.8l1.8-1.5l4.2-2.8l1,0.1
		l1,0.6l2.9,8.9l-0.3,1.4l-2.3,1.6l-2,0.9l-0.8,0.3l-0.3,0.1l-0.4-0.1l-2.3-0.8l-2.8-3.3l-2.6-4.7l-0.3-3.7l0.5-4.9l2.4-3.5l0.7-0.1
		l0.9,0.1l1.2,0.2l1.8-0.9l4.7-4.1l-0.3-1.9l1.7-2l0.9-0.8l2.5-1.3l1.7,1.5l0.1,0.7l0.2-3.2l0.6-2.6l4.2-4.6l1.6-0.2l3.4,0.1
		l5.1-5.5l1.3-3l2.5-7.2l1.3-4.4l0.6-0.8l8.3-1l3.4-0.8l1.3,0.4l0.7,1.9l2-1.3l4.1-0.6l0.7,0.6l1,1.4l2,5.9l-1,5.6l-0.6,1.5
		l-0.9,1.6l-0.8,0.9l-0.6,0.6l0.9-0.1l2.4-1.9l0.7-2.8l-0.1-1.1l-0.3-1.2l0.5-1l3,2.9l0.3,1.2l-0.1,1.5l-0.5,1.4l-0.5,0.8l-1,1.1
		l-1.9,1.7l-2,1.2l-2.5,1.2l-4.4,1.3l-1.2,0.1l-1.1-0.5l-1.7-1.2l-0.9-0.8l-1.7-1.1l3.2,3.2l0.9,0.7l0.7,0.4l1,0.1l3.8-1l3-0.9
		l1.2-0.7l2-0.9l0.9-0.2l1.6,5l3.9,2.6l1.1,0.5l0.3,0.1l0.4-0.6l-1-1.5l-0.9-0.6l-1.2-0.9l-3.1-3.6l1.3-3l0.9-0.8l2.6-0.2l4.9,5.5
		l-0.2,3l-0.4,2l-0.6,1.6l-0.6,1.3l-2.7,3.4l-1.2,1.3l-3.1,4.7l3.1,2.3l1.4,0.1l1.1-0.6l0.6-0.8l2-4.4l0.5-1.2l0.9-2.9l6.5-8
		l1.5-4.5l4-6.2l-0.7-0.6l-3.6,5.1l-1.5,2.7l-0.7,1.8l-1.1,2.3l-1,1.2l-1.3,0.4l-0.1-2.4l0.3-1.1l1.3-2.8l0.6-2.1l0.5-2.3l0.1-1.8
		l-1-3.2l-0.8-2.4l4.6-9.1l3.9-4.4l0.7-0.8l1.2-1l1-0.4l0.8-0.1h1.9l2.1,0.2l1.2-0.2l0.8-0.8l-5.2-1.7l-1.5,0.2l-1.6,0.6l-1.3,1.1
		l-1.1,2l-0.5,0.8l-3,2.9l-0.8,0.2l0.4-4.9l2.1-12.3l4.4-4.1l3.9-2.8l3-1.3l1.2,1.1l0.3,1.7l1.2,1.2l1.6,1.4l3.4,2.4l2.4,0.8
		L469,1283.6L469,1283.6z M469.8,1242.7l-0.2,0.2l-1.9,1.5l-1.8,0.9l-2.6,2.8l-0.4,0.8l-0.4,0.7l-0.4,0.4l-2.6,2.1l-2.4,1.1
		l-1.1,0.4l-1.4,0.2l-0.6-0.1l-0.6-0.4l-4.1-4.7l-0.3-0.6l-0.1-0.6l0.3-0.5l3.8-1.4l0.7,0.3l0.4,0.3l0.6,0.7l1.6-0.4l0.4-0.3l-1-0.9
		l-2.5-1.1l-1.6,1l-0.4,0.5l-0.4,0.4l-0.5,0l-0.6-0.4l-0.4-0.5l-1.2-2.6l-0.5-1.3l-0.7-3.4l1.5-2.3l0.3-0.4l1.2-0.2l0.4,0.1l3.8-0.7
		l0.5-2.5l0.2-2.1l-0.1-0.8l0.1-0.7l0.8-2.1l0.4-0.5l0.5-0.2l4.9-1.6l3.4-0.8l0.4,0.1l4.6,3.7l3.1,1.1l0.7,0.6l1.7,2.9l0.3,0.6
		l-0.1,0.6l-3,4.4l-0.4,0.4l-0.4,0.3l-0.7,0.2l-2.4-0.2l-0.4-0.3l-0.5-0.6l-2-0.8l0.1,0.7l0.4,0.6l2.3,1.6l1.2,0.4l1.5,0.3l0.3,0.8
		l-0.5,1.2l-0.6,0.9L469.8,1242.7L469.8,1242.7z M379.9,1465.5l-0.5,0.3l-0.9,0.3l-1.7-4.2l-0.6-2.8l-0.8-5.5l0.1-0.9l0.8-2.4
		l-3.9-2.3l-2.5,1.3l-0.6,0.2l-0.9,0.2h-0.8l-0.5-0.1l-0.7-0.5l-0.3-0.5l-0.1-0.7l0.2-0.7l0.8-0.7l0.7-0.5l1.1-0.5l1.4-0.1l1-0.1
		l0.6-0.2l0.8-0.4l0.6-0.6l0.7-1l0.5-0.9l-0.5-0.2l-1.8,1.1l-5.1,0.6l-0.4-0.7l-1.4-12.6l0.2-0.7l1.6-2l1.1-0.9l5.6-1.6l0.7,0.1
		l0.5,0.5l2.4,7.4l0.3,1l0.3,3.4l1.4,4.5l0.9,2.6l1.1,1.3l1.4,2.5l2,5.7l0.4,5l-0.3,1.1l-0.3,0.5L379.9,1465.5L379.9,1465.5z
		 M402.2,1464.8l-4.7-4.3h-0.7l-0.7,1.3l-0.6,0.2l-0.7,0l-4.5-0.9l-2.5-1.4l-0.5-0.5l-0.2-0.6l-0.6-4.3l0.2-1.1l0.4-0.7l0.3-0.5
		l2.8-3.1l0.6-0.4l2.5-0.3l0.5,0.1l0.3,0.8l0.8,1.3l0.2,0.8l0.3,0.7l1.7,1.4l1.8-2.3l0.1-0.6l-0.5-0.7l-0.4-0.2l-1.1-0.2l-1.3-2.5
		l-0.3-0.7l-1.6-2.2v-0.7l1.2-0.8l1.7-8.6l0.4-0.9l0.3-0.5l0.5-0.5l0.5,0.2l0.7,1l0.3,0.5l0,0.9v1.1l0.4,2.3l0.5,4.1l3.5,6.3
		l-1.7,2.7v3.4l1.1,2.6l0.2,1l1.9,2.6l0.5,0.1l-1.1-0.5v-0.6l1.2-0.6l0-0.7l0.5-0.2l0.4,0.2l0.5,0.4l0.4,0.4l0.1,0.8l-0.3,1.6
		l-0.2,1l-0.3,0.5l-0.4,0.4l-2,1.2l-0.7,0.3l-0.8,0.1L402.2,1464.8L402.2,1464.8z M386.6,1450.3l-0.5,0l-0.5-0.3l-5.5-12.2l-2.4-7.4
		l0.1-1.7l1.3-0.1l2.5,0.5l4.5,1.1l1.1,0.6l3.2,2.6l4.3,1.1l0.4,0.5l0.1,0.9l-0.1,1.2l-1.3,8.4l-0.3,0.5l-0.6,0.2l-1.1-0.1l-2,1.4
		l-0.9,0.7l-1.1,0.9L386.6,1450.3L386.6,1450.3z M436.6,1272.4l-2.4-0.8l-1.4-1.7l-1.6-0.1l-2.2,0.6l-0.7,0l-1.5-0.1l-0.5-0.2
		l-0.4-0.3l-0.4-0.7l-3.5-4l-1.2,0.7l-2.6,0.6l-0.6-0.1l-0.4-0.4l-0.2-1.4l-0.2-1.7l0-0.5l0.3-1.1l0.6-0.8l1.3-1.3l0.5-0.4l0.7-0.2
		l0.9,0.1l0.4,0.2l0.7,0.2l1.8-0.2l3-0.5l0.8-0.2l1.4-0.9l0.5-0.4l0.6-0.1l0.8,0.1l0.7,0.2l0.4,0.2l2.4,1.8l0.4,0.4l0.4,0.4l0.3,0.4
		l1.5,2.5l0.6,1.6l0.1,0.7l0,0.7l-0.1,1.5L436.6,1272.4L436.6,1272.4z M414,1423.7l-1.4-0.8l-4.7-2l-0.7-0.7l0-0.7l3.1-3.5l0.4-0.4
		l0.7-0.4l3.7-2l0.8-0.2l8.7,2.9l4.6,1.9l1,0.1l0.6-0.2l1.2-1l0.5-0.3l0.4,0l0.5,0.3l0.6,0.8l0.2,0.6l-0.2,0.8l-0.7,2.2l-0.7,0.5
		l-1.3,0.5l-0.5,0.1l-1.4,0.1l-4.2,0l-0.8-0.1l-0.9-0.4l-0.5-0.3l-0.8-0.2l-0.5,0.1l-6.2,1.8L414,1423.7L414,1423.7z M416.1,1246.3
		l-0.7-0.1l-1.1-0.4l-0.7-0.4l-0.4-0.3l-0.6-0.6l-0.8-1.1l-1.5-3.3l0-0.7l0.1-2.3l0.5-0.5l5.3-1.4l0.6-0.1l3.4,0l6.2,0.4l1.3,0.4
		l0.5,0.2l0.9,0.6l0.4,0.4l0.5,0.6l1,1.6l0.2,0.8l-5.5,1.5l-6.5,2.9l-0.9,0.5L416.1,1246.3L416.1,1246.3z M385.4,1317.2l-0.5-0.5
		l-0.3-0.7l-0.4-1.7l0.2-0.6l0.4-0.3l4.6-1.3l0.5,0.2l-0.3-1.2l-1-0.2l-1.1,0.4l-1.4,0.1l-0.6-0.2l-0.4-0.8l-1.4-5l0.2-0.5l0.6-0.5
		l0.8-0.2l3.5,1.4l0.5,0.3l0.7,0.5l2.4-1.4l3.3-3l2-1l0.9-0.1l0.4,0.9v0.9l-0.2,0.9l-1.8,7.7l-0.2,0.5l-0.3,0.5l-1,1.3l-4.1,4
		l-0.6,0.3l-2.7,0.2l-0.9-0.1l-1.4-0.5L385.4,1317.2L385.4,1317.2z M364.3,1463.3l1-1.4l1.2,0.2l1.1-0.3l0.6-0.1l1-0.5l0.4-0.4
		l0.7-0.9l0.2-0.8l-0.4-0.4l-0.7,0.7l-0.7,0.6l-0.5,0.3l-0.8,0.1H367l-2.6-0.3l-1.8-0.9l-0.8-1.7l0.7-6.2l1.1-2.1l0.8-0.2l8.2-0.8
		l1.9,0.4l0.2,0.8l0.8,8.2l-0.2,0.6l-1.8,1.6l-0.9,0.7l-2.5,1.9l-1.2,0.8l-0.5,0.3l-0.6,0.2l-1.2,0.1l-1.4-0.1l-0.8-0.3
		L364.3,1463.3L364.3,1463.3z M408.5,1299.6l-0.6-0.2l-0.4-0.7l-0.4-1l-0.1-0.7l0.3-0.7l0.9-1l-0.9-1v-2.1l1.2-2.3l-1.2-1.7v-0.9
		l0.9-0.8l0.2-1l0.2-0.6l0.4-1.2l0.5-1.1l0.6-1l0.9-0.3l3.6,1.7l0.7,0.5l0.4,0.5l0.8,1.6l0.4,1.1l0.9,2.8l0.5,2.3l-0.7,2l-0.3,0.5
		l-6,4.7l-0.5,0.3L408.5,1299.6L408.5,1299.6z M393.3,1428.7l-0.5,0l-2.1-0.7l-2.4-1.1l-0.5-0.3l-0.3-0.7l0.6-1.1l-0.8-0.7l-1-0.2
		l-1,0.1l-0.8,0.5l-0.9,1.1l-0.7,1l-0.6,0.2l-0.9,0.2l-1.3,0.1l-0.8-0.2l-0.5-0.5l2.2-3.2l1.1-0.9l0.5-0.3l2.6-0.8l1.2-0.3l0.8,0
		l3.5-2.4l2.7-3.8l2.3-1.1l0.6,0.4l0.3,2l0.1,0.7l0.1,2.1l-0.1,8.1l-2,1.5l-0.4,0.2L393.3,1428.7L393.3,1428.7z M439.7,1298.6
		l-0.4-0.1l-0.7-0.4l-4-4.5l-0.2-5.8v-0.9l0.1-0.9l0.2-0.6l0.4-0.8l2.1-3.1l0.4-0.3l0.8-0.1l0.7,0.1l2.8,0.9l0.4,0.6l0.1,1.9
		l-1.3,10.5l-0.9,2.9l-0.4,0.6L439.7,1298.6z M415.5,1258.6l-0.4,0l-2.8-0.8l-0.2-0.5l0.5-1.4l5.8-5.6l0.6-0.4l0.7-0.2l0.7,0l7,1.8
		l0.5,0.5l1.5,1.9l0.3,0.7l-0.4,0.5l-1.4,0.8l-0.8,0.3l-2.4,0.7l-0.7,0.1l-3.1,0l-2-0.2l-0.7,0.2l-0.5,0.2L415.5,1258.6
		L415.5,1258.6z M436.1,1243l-0.5,0l-2.4-3.4l-0.1-5.2l0.2-0.8l0.6-0.5l3.7-0.9l0.7,0.1l0.7,0.3l0.6,0.6l1.2,3.1l1.5,4.5l-0.1,0.6
		l-0.4,0.3l-4.2,1.3L436.1,1243L436.1,1243z M426.5,1199.7l-1-1.2l-3.9-1.2l-1.8-0.7l-0.3-0.4l0.8-2.9l0.5-0.5l0.6-0.3l2.3,0.3
		l0.6,0.2l5.1-0.8l2.1-1.9l2.7,3.1l0.8,2.4l0.2,1.2l-3.5,0.3l-0.5-0.5l-0.7-0.3l-0.2-0.5l0.6-0.5l0.4-0.5l-0.6-0.4l-1-0.1l-2.3,0.6
		l-0.2,1.2l0.5,0.5l0.1,0.6l0.9,0.5l-1.2,1.5l-0.7,0.2L426.5,1199.7L426.5,1199.7z M426.2,1276.4l-0.5-0.1l-4.6-1.8l-0.4-0.5
		l-0.9-3.5l0.9-1.1l2.4-1l0.6-0.1l0.5,0.2l0.4,0.4l0.5,1.5l0.4,0.4l0.5,0.3l0.6,0.2l0.7,0.1l1.4,0.1l0.7,0l1.4-0.3l1.1-0.2l1,0.2
		l0.5,0.3l0.4,0.4l0.5,0.9l0.4,1.1l0.1,1l-0.4,0.8l-0.4,0.2l-2.8,0l-3.3,0.1L426.2,1276.4L426.2,1276.4z M405.9,1443.2l-0.4-0.2
		l-2.4-5.2l-0.1-0.7l-0.1-1l0-1.4l0.1-2.2l1.3-2h0.7l0.8,0.7l1.2,1.2l4.2,4.2l0.9,1.9l-1.6,2.3l-0.4,0.4L405.9,1443.2L405.9,1443.2z
		 M435,1323.5l-1.2-1.2l-0.4-0.4l-4.6-6.2l0-0.9l0.5-1.5l0.4-0.5l0.5-0.2l1.8-0.1l0.7,0.1l3.4,1.5l1.7,1.2l0.5,0.6l0.2,0.9l-0.3,1
		l-2.1,4.2l-0.5,1l-0.5,0.3L435,1323.5L435,1323.5z M410.7,1232.5l-4.3-1l-0.7-0.6l-0.2-0.5l-0.5-1.8l0.2-0.8l0.8-0.9l0.5-0.4
		l7.4-2.3l1.9,0.7l1.3,2.2l0.4,0.8l0,0.6l-0.9,0.3l-3.4,0.9l-2.6,0.6l-0.5,0.2L410.7,1232.5L410.7,1232.5z M426.7,1297.6h-0.4
		l-2-0.4l-0.5-0.5l-1.2-3.1l-0.7-2l0-1.1l1.9-2.4l1.3-0.8l0.7-0.1l1.8,1l1.8,1.8l0.8,1.6l0,0.9l-0.3,1.7l-0.8,2.1L426.7,1297.6
		L426.7,1297.6z M364,1470.9l-0.4-0.1l-0.5-0.2l-0.6-0.7l-0.2-0.8l0.3-3.6l0.9-0.1l1.7,0.8l1.7,0.4l0.8,0.1l0.6-0.1l0.4-0.4l2.3-2.1
		l3-2.7l1.8,1.3l0.5,1.6l0.2,0.6l0.1,0.8l-0.8,1.1l-0.7,0.5l-6.7,2.5L364,1470.9L364,1470.9z M420.9,1288.6l-0.2-0.4l0.1-0.6
		l0.2-1.5l0.2-0.8l0.4-0.4l0.6-0.4l0-1.2l0.3-0.7l0.5-0.7l0.4-0.7l0.2-0.6l0.5-0.5l0.6-0.1l0.5,0.4l0.5,0.3l0.7,0.1l0.9,0l0.4,0.2
		l0.4,0.3l0.4,0.4l1.1,0.5l0.5,0.4l0.5,0.3l0.6-0.1l0.9-0.8l0.7-0.2l0.6,0.5l0.2,0.8l-0.3,1.1l-0.4,0.9l-0.3,0.7l-0.7,1.1l-0.2,1.1
		l-0.5,0.1l-0.8-0.5l-0.4,0l-0.6-0.2l-0.7-1l-0.8-0.2l-0.8-0.1l-1.2-0.5l-1.3-0.3l-0.4,0.1l-0.6,0.5l-0.9,0.2l-0.6,0.6l-0.4,1.1
		l-0.4,0.6L420.9,1288.6L420.9,1288.6z M419.6,1377.6l-0.5-0.3l-1.7-2.2l-0.1-0.8l0.1-0.8l1.2-3.7l0.4-0.6l0.4-0.4l0.4-0.1l5,0.3
		l2.2,1.7l-3.1,4.5l-0.9,0.9l-0.4,0.4l-0.5,0.3l-1.9,0.7L419.6,1377.6z M432.2,1254.6l-1.5-1.4l-1.2-1.4l-0.4-0.7l-0.2-0.5l-0.3-4
		l0.2-0.8l0.6-0.7l0.6-0.4l0.6-0.1l0.8-0.1l0.8,0.4l0.4,0.5l2.4,6.3l0.2,1.7l-0.2,0.7l-0.3,0.5l-0.6,0.5l-0.8,0.1l-0.5-0.1l-0.5-0.2
		L432.2,1254.6z M415.7,1451.7l-0.5-0.8l-0.4-0.4l-0.7-0.5l-2.7-1.8l-0.8-0.4l-2-0.8l-0.5-0.5l-0.6-0.8l-0.2-0.6l5-3.8l0.7-0.3
		l0.5-0.1l0.8,0.2l0.5,0.7l0,0.9l-0.5,1.7l0,0.7l0.5,0.9l1.1,1.7l0.7,0.8l0.8,0.6l0.5,0.6l-0.2,0.8l-0.4,0.4l-1.1,0.7L415.7,1451.7
		L415.7,1451.7z M399.1,1297l-0.1-0.6l0-1l0.1-0.7l0.7-2.9l0.2-0.5l0.3-0.5l0.5-0.7l0.4-0.3l0.5-0.3l2.2-1l0.9,0l0.4,0.4l0.2,0.6
		l-0.5,5.2l-1.2,2.9l-0.5,0.5l-0.5,0.3l-0.8,0.1l-0.5-0.1l-2-0.5l-0.4-0.4L399.1,1297L399.1,1297z M429.8,1311.2l-0.4-0.2l-0.4-0.6
		l-0.6-1.8l-0.1-0.8l0.4-0.9l0.2-0.5l1.1-1.7l0.6-0.7l5.6-3.4l0.5,0.1l0.5,0.8l0.2,0.5l0.2,0.9l0.2,2.8l-0.6-0.4l-0.4-0.4l-0.6-0.1
		l-1.6,0.2l-0.8,0.3l-0.7,2.6l-1.2,2.4L429.8,1311.2L429.8,1311.2z M380.6,1415.4l0.2-1l-0.1-0.7l-0.4-0.4l-1.7-0.6l-0.7-0.1
		l-0.8-0.1l-0.7-0.2l-0.5-0.7l1.5-1.6l4.8-2.7l0.7,0.3l1.2,1.6l0.5,1.1l0.7,2.3l-0.2,0.9l-0.6,1l-0.4,0.4l-0.5,0.5l-1.1,0.6
		l-2.7,0.5L380.6,1415.4L380.6,1415.4z M425.3,1307.3l-1.8-4.3l-0.9-1.6l-0.5-1.4l0.4-1l0.3-0.4l1.4-1.2l0.5-0.1l2.7,0.9l0.1,1.9
		l-0.1,4.1l-0.2,0.8l-0.5,1.4l-1.2,0.8L425.3,1307.3L425.3,1307.3z M411.4,1249.3l-0.7-0.1l-2.4-1.5l-2.4-3.8l-0.1-0.8l0.4-0.7
		l0.4-0.3l2.3-0.8l0.8,0.4l4.4,6.3l0,0.6l-2.4,0.6L411.4,1249.3z M411.2,1279.4l-3.6-2.2l-0.4-0.3l-0.6-0.6l-0.7-1l-0.2-0.6l0.3-0.8
		l0.5-0.5l0.8-0.3l0.6-0.1l0.7,0h1.7l0.8,0.2l0.5,0.5l0.7,0.8l0.5,0.8l1.5,3.7l-0.4,0.4l-0.7,0.3l-0.8,0.2l-1-0.3L411.2,1279.4
		L411.2,1279.4z M424.5,1232.9l-0.9-0.2l-1.2-0.4l-0.8-0.4l-0.4-0.4l-0.2-0.7l0.2-3.8l4,0.6l1,0.2l0.8,0.4l0.4,0.3l0.4,0.5l0.2,0.7
		l0.2,0.8l0.1,1l-0.2,0.8l-0.5,0.4L424.5,1232.9L424.5,1232.9z M458.4,1204.5l-1.1-0.2l-3-1.5l-0.5-0.7l-0.2-1l0.1-0.9l0.7-1.4
		l0.5-0.7l2.6-1.4l0.8-0.1l0.5,0.1l0.4,0.3l0.3,0.4l0.1,0.9l-0.6,5.7L458.4,1204.5L458.4,1204.5z M426,1220.8l-0.7-0.1l-0.5-0.2
		l-1.5-1.3l-0.7-0.9l-1.2-4.6l2.4-2.6l0.6,0.1l2.4,2.9l1.4,1.7l-2.2,0.8l-0.1,0.8l0,0.7L426,1220.8L426,1220.8z M439.5,1210.3
		l-2.7-4.9l-1.1-2.6l0-0.9l0.2-0.8l0.5-1l0.3-0.4l0.9,0l2.8,3.8l0.8,3.7l-0.2,1.4l-1.1,1.4L439.5,1210.3L439.5,1210.3z M409.5,1455
		l-0.8-1.9l-1.9-3.5l-0.2-0.6l-0.1-0.6l0.7-0.7l0.6,0l1,0.5l2.9,1.7l1.9,1.3l0.7,0.5l0.3,0.7l-0.1,0.7l-0.5,0.5l-0.8,0.4l-2.1,1.1
		l-1,0.4l-0.5-0.1L409.5,1455L409.5,1455z M413.3,1273.2l-2-1.6l-0.6-0.5l-0.4-0.4l-0.3-0.6l0.1-0.8l0.5-2.9l0.5-0.9l1-0.1l0.5,0.3
		l3.1,2.9l-1.2,4.8l-0.4,0.3l-0.5-0.1L413.3,1273.2L413.3,1273.2z M408.2,1240.7l-1.5-0.1l-4.8,0l-1.8-0.9l0-0.7l0.2-0.5l1.5-1.6
		l0.6-0.4l0.8-0.1l0.5,0l1,0.2l2.9,0.7l0.6,0.3l0.3,2.6L408.2,1240.7z M408.2,1376.8l-0.9-2v-2l0.3-0.5l2.3-1.3l0.6-0.2l1.3-0.2
		l1.2,0.1l0.8,0.2l0.3,0.4l-0.1,0.8l-0.4,1.1l-0.3,0.5l-4.3,3.5l-0.6,0.4l-0.3-0.6L408.2,1376.8L408.2,1376.8z M383.2,1252.9l-0.4,0
		l-0.6-0.4l-1.3-3.8l-0.2-0.5l-0.1-0.6l0.1-0.7l0.4-0.7l0.8-1.2l0.9-0.2l0.6,0.4l2.1,3.5v2.5l-1.8,1.7L383.2,1252.9L383.2,1252.9z
		 M427.5,1226.3l-4-2.1l-0.6-0.6l-0.8-3l0.7-0.3l6.1,1.9l0.2,4.4l-0.2,0.5l-0.8-0.2L427.5,1226.3L427.5,1226.3z M413.7,1234.2
		l-0.3-0.1l-0.4-0.4l-0.6-0.7l-0.3-0.6l0-0.7l0.2-0.5l2.7-1.3l3.9-0.3l2.1,2.9l-2,0.5L413.7,1234.2L413.7,1234.2z M423.7,1453.1
		l-0.3,0l-0.8-0.5l-3.3-2.3l-2.3-2.4l-0.4-0.9l0.2-0.8l0.8-0.3l0.7,0l0.4,0l0.8,0.2l3.7,2.6l0.5,0.4l0.4,0.6l0.2,0.6L423.7,1453.1
		L423.7,1453.1z M438.3,1313.5l-0.4,0l-3.7-1.1l-0.9-0.7l-0.3-0.7l0.1-0.8l1.8-3.6l0.5-0.4l0.4-0.1l1.7,1.7l1.1,5.5L438.3,1313.5
		L438.3,1313.5z M438.1,1248.8l-1.4-0.8l-0.7-0.6l-0.3-2.2l0.3-0.8l4.3-1.1h0.5l0.5,0.4l0.1,0.6l-0.6,4l-0.7,0.7l-0.7,0.2l-1-0.2
		L438.1,1248.8L438.1,1248.8z M431.4,1213.6l-3-0.6l-1.3-0.4l-0.5-0.4l-0.4-0.4l-0.2-0.5l-0.2-0.7l1.4-1.5l1-0.8l0.8-0.2l0.4,0.2
		l1.7,1.2l1.7,2.2l-0.3,1l-0.2,0.5l-0.4,0.2L431.4,1213.6L431.4,1213.6z M424.6,1249.2l-1-0.1l-4-1.7l-0.5-0.6l0.7-0.5l2.2-0.3
		l1.2-0.2l0.5-0.2l0.9-0.5l0.7-0.5l0.7-0.2l1.5,0.4l0.4,0.7l-0.2,2.1l-0.4,0.5l-0.5,0.3l-1.4,0.6L424.6,1249.2L424.6,1249.2z
		 M387.7,1412.4l-0.3,0l-1.5-1.3l-0.3-0.5l-0.9-3.3l0.4-0.4l0.9,0l3.1,0.7l0.4,0.2l0.7,0.9l0.9,1.5l0.2,0.7l-0.4,0.8l-1.5,0.6
		L387.7,1412.4L387.7,1412.4z M395.9,1239.9l-0.4-0.2l-0.8-1.2l-0.2-0.5l-0.2-1.2l0-1l0.1-2.1l0.3-0.7l0.4-0.4h0.6l2.1,1.2l0.4,0.6
		l0.1,0.8l-0.1,0.7l-0.5,3.3l-0.9,0.6l-0.5,0.2L395.9,1239.9L395.9,1239.9z M429.3,1280.6l-2.7-0.8l-1-0.4l-0.2-0.5l0.2-0.7l0.5-0.4
		l1.7-0.6l0.8-0.1l3.9,0.1l0.5,0.3l0.1,0.8l-0.1,1l-2.7,1.4l-0.4,0.1L429.3,1280.6L429.3,1280.6z M431.8,1221.1l-3.8-0.7l-0.5-0.5
		l-0.2-1.8l6-0.6l0.6,0.2l0.3,2l-0.1,0.8l-0.5,0.4l-0.6,0.1l-0.9,0.2L431.8,1221.1L431.8,1221.1z M463.2,1188.7l1.7-1.2l1.9-0.4
		l1.5,1.5l1,0.4l0.7,0.1l0,0l-0.6,0.5l-2.4,0.2L463.2,1188.7L463.2,1188.7z"/>
	<path id="CL-MA_1_" class="st1" d="M457.6,1667.8l-0.9-0.1l-1.3-0.4l-1.3-3.3l-0.7-6.9l-0.3-6.7l-0.8-5.3l-0.6-1.5l-1.8-1.9
		l0.4,1.4l1.2,3.2l0.4,3.1l2,20.2l-0.4,2.1l-1.1,0.6l-1.3-0.7l-7.6-6.3l-0.8-1l-0.6-1.8l0.2-2.4l-1.2-4l-1.7-4.5l1.9-1.2l0.4,1.4
		l3.1,6.7l2.9,4.7l1.3-0.4l-3-6.5l-4.3-9.5l1.5-0.7l1.3-0.9l1.7-2.2l-5.6,1.6l-3.3,4.2l-2.4-4.6l-1.1-4.3l-2.5-0.6l-2-0.7l-0.9-11.4
		l0.2-1.4l0.8-2l3.5,1.1l4,4.5l1.1,2.4l2,4.9l0.5,2.7l0.5-0.3l0.2-1.6l-3.8-11.1l-3.3-12l1.6-1l1.5,2.3l0.4,1.7l-0.8-6.7l-0.9-1
		l-1,0.6l-3.8,4.4l-1,0.7l-0.8,0.2l-7.1-2l-1.7-1.4l-0.9-6.8l-2.3-1.7l-0.9-0.7l-0.4-6.4l0.9-1.5l1.7-1.2l1.6-0.6l8.9,0l0.9,0.6
		l1.3,2.2l2.8-7.6l-0.1-6.1l1.1-1.6l3.3-1h1.4l2.2,2.6l0.5,1.9l1.1,0.8l1.2-2.7l-2.4-2.4l-1.8-0.4l-1.6-0.5l-2.6-3l-0.1-1.4l0.7-1.4
		l0.9-0.3l1.3-0.3l1-0.7l0.7-0.8l1.2-5.1l-7.2,7.1l-0.6,1.3l-1,3.9l-1.1,5.2l0.3,1.5l0.2,1.7l-0.4,1.1l-4.1,4l-0.7,0.4l-3.7-0.4
		l-2.9-3.4l-1.6-4l-2.8-6.2l-2.2-7.5l2.9-1l3.5,1.4l1,0.7l0.9,0.8l0.9,0.8l1.1,0.6l5,0.8l-1.9-1.4l-2-0.7l-3.3-2.4l-1.7-2.1
		l-6.6-0.6l-7-5l-8.3-8.4l-0.2-1.8l0.9-1.6l1.4-1.6l1.9-1.4l3.6-1.2l2.3,0.8l3.2-0.4l2.1,2.8l0.8,1.9l2.7,3.1l9.3,4.2l2.5,0.5l0.7,0
		l0.5-0.5l-10.2-4.9l-0.8,0.1l-0.9-0.4l-1.2-1.3l-6.3-11.3l0.4-2.5l0.9-1.4l2.7,0.4l1.8,0.6l3.7,4.2l9,3.7l0.1-1.8l-0.5-1.7
		l-4.2-1.8l-3.5-1.5l-7.7-4l-1.1-1.6l-0.9-4l4-2.3l2-0.7l1.9-0.3l1.2,0.5l1.6-0.4l0.4-1.8l-4.9,0.7l-3.4,0.9l-0.8-0.2l-0.9-2.5
		l-0.2-3l0.2-1.4l3-3.1l5.1-1.7l0.9-0.3l5.4,1.3l0.7,1.3l0.8,3.4l1,1.8l1.4,0.7l1.1,0.4l2.5,2.6l1,3.5l0.4-1.9l-0.8-2.7l-0.9-2.3
		l-0.7-0.7l-2.9-0.3l-1-4.1l0.1-3.4l-1.6-1.1l-2.9,0.4l-4-1.3l-0.6-0.8l-0.4-4.1l1.5-8l0.6-0.9l1.2,0l1.4,1.3l0.5,1.2l0.8,1.3l2,1.2
		l1.2,0.4l1.5-0.4l-1.7-1l-1.2-0.3l-0.7-0.5l-2.2-3.6l-1.2-9.5l0.5-1.1l1.2-1.7l0.7-0.7l0.9-0.5l1.2-0.1l1.1,0.8l0.8,0.8l1.3,0.2
		l-0.1-1.3l-2.4-1.3l-5.8,0.7l-0.3,2.4l0.4,5.3l-2.6,4.8l-1.6,5l-0.4,3.3l-1.3,8.1l-0.8,1.2l-0.9,0.2l-1-0.7l-4.2-5.7l-1.7-5
		l2.7-10.6v-11.6l-2.4-2l-0.8-1.9l-2.2-3v-1.6l0.4-1.3l2.4-3.9l1.6,1.1l1.2,0.4l0.9-0.2l1.5-1.2l1.2-0.4l3.2,0.3l2.6,1l0,0
		l13.5,11.6l9.3,8l11.5,9.9l0.7,0.5l0,0l3.2,0.9l-1.9,2.2l-11.2,0.3l-1.6,0.1l-2.9,7.8l-1.6,5.8l0.5,1.1l2.1,2.7l2.7,11l-0.8,1.1
		l-1.4,1.3l-1.1,1.3l-1,5.3l1.5,1.7l1,0.9l0.8,1.1l-0.2,1.8l-1.1,1.5l-0.9,1.9l-0.4,2l0.5,1.7l3.4,2.6l3.4,2.7l0.7,0.8l0.6,1.1
		l1.6,3.7l0.4,1.6l0.7,8.7l0.8,5.9l2.1,8.6l0.7,1.2l0.8,0.7l1.1,0.2l1-0.2l1.2-0.4l1.3-0.7l1.3-1.2l2.3-3.1l0.8-0.7l1.3-0.8l4.2-2
		h1.1l1.1,1l0.7,0.9l0.8,0.7l1.3,0.5l1.3-0.2l0.8-0.6l0.9-1.7l0.8-1.1l1-0.5l1-0.2l4.7,0.7l3,2.3l-0.2,1.5l-1.5,3.3l0.2,1.5l1.2,1.5
		l0.9,1.2l1,1.9l0.4,1.4l-0.9,9.5l-0.6,1.2l-2,0.2l-2.4,4.5l0.7,3.1l0.9,1.3l1,0.7l1.4,0.8l1.6,2.1l-0.5,1.7l-1.2,1.2l-0.7,1.7
		l-0.1,3l0.1,2.4l-1.5,5.3l-0.8,0.9l-1.2,0.9l4.3,11.3l1.2,0.7l1.9,0.3l1,0.5l0.8,0.5l1,0.7l1.9,1.5l5,5.6l0.7,1.7v1.8l1.8,4.8
		l8.3,2.7l17.8-2.7h30.8l12.5,2.7h4.3l2.1-1.4l6.8,3.1l11.8,3.7l6.7,2.7h2.1l7.8,2l1.6,0.7l2.1,1.5l4.1,3.1l3.9,0.7l3,0.5l2.8,0.5
		l5.4,1.5l-0.2,3.1l-1.4-2.8l-1.2-0.5l-6.6-1.1l-4.6-0.2l-0.8,0.1l-4.8-0.9l-1.5-0.6l-0.8-0.5l-1.6-1.4l-0.9-0.8l-1.9-1.2l-1.4-0.6
		l-1.4-0.1l-0.9,0l-2.2,0.2l-6.8,3.1l-1,0.8l-0.5,1.1l-0.1,1.8l-0.2,4.4l-2.6,4.3l-0.9,1.2l-2,2l-0.7,1l-0.9,0.6l-4.1-0.6l-1.1-1.1
		l-4,0.9l-8.8,3.9l-1.1,0.6l-12.6,7.6l-1.2,0.1l-6,0.8l-4.9,0.9l-1.2,9.3l0.5,1.8l-0.1,0.8l0,5.5l-3,8.5l-0.7,1.3l-0.8,1l-0.6,1.3
		l-0.4,1.9l-1.4,10.7l0.1,2l0.1,1.5l0.4,2.1l0.6,1.6l0.5,2.1l0.3,1.8l0.2,2.4l-0.2,2l-1.4,8.1l-0.8,1.6l-1.9,2.3l-7.3,3.3l-1.9,0.7
		l-6.5-3.2l-1.2-0.3l-1.7-0.2l-1.8-0.1h-0.9l-1.5-0.2l-2.5-0.7l-6-4.3l-3.2-0.8l-4.5-1.3l-2.5-1.3l-6.7-6.8l-2.3-3.4l-1.8-2.9
		l-0.9-1.7l-1.2-3.2l1.1-5.3l5.4-4.7l6.6,0.8l1.1,2.9l0.2,1.4l-0.2,2.3l-0.5,1.5l-2.5,1.6l-2.7,1.4l1.5,0.6l3.2-1l1.3-0.8l2.3-1.6
		l0.2-1.3l-0.2-2.1l-0.4-2.6l-0.1-1.3l0.4-2l0.9-1.2h4.8l1.1,1.3l2,11.6l-0.5,1.5l-0.8,0.8l-1.2,1l-3.6,2l-1.1,0.4l-1.4,1v1.9
		l1.2,0.3l1.9-1.2l4.6-1.8l1.2-0.8l1.6-3.3l-0.2-4.3l-0.5-3.1l0.2-4l1.1-4.6l10.1-5.3l1.2,0.1l1,0l1.2-0.3l0.8-0.5l0.8-0.6l0.7-0.8
		l7.7-13.5l0.4-1.6l-1.9-3.4l-3.4-1l-3.7-0.2l-9.8,5.4l-8.2,5.2l-3.2,2.7l-0.6,1.7l-4,6.3l-2.2,0.6l-1.1-0.1l-1.4-0.9l-0.8-1.1
		l-0.8-1.5l-0.7-1.2l-0.8-0.8l-3.2-1.1l-8.3,2.1l-1.1,1.3l3.1-1.3h3.9l5.9,6l0.8,1.7l-0.5,1.2l-5.4,1.7l-1.2-0.3l-1.5-1.3l-2.8-0.9
		l-1.9,1l1,1.7l1.4,0.6l0.8,0l1.2,0.6l-3.8,7.5l-1.2,0.5l-2-0.7l-1.1-1.6l-0.7-0.8l0.3,2.4l3.2,3.8l1.1-0.9l1.1-0.2l3.9,6l0.6,1.6
		l-0.7,1.2l-3.7,0.6l-0.4,0l-1.1-1.3l-7.5-6.2l-5.2-2.9l-3-2.1l-0.9-1.2l-4.1-3.3l-0.8-0.4l-1.2-0.1l-1-0.4l-2.6-2.5l-3.3-4.7
		l8.6,0.5l3-0.7l2.1,0.3l3.7,3.1l2.7,4.6l0.9,0.9l1.7-0.2l0.6-3.4l-2.2-2l-1.6-1.8l1.3-2.7l1.7,0.2h1.8l-1.8-1.3l-2.6-0.5l-1.1,0.3
		l-0.9,1.1l-1,0.3l-3.2-2.9l1-1.2l0.4-0.6l0.8-2.9l-1.5-2.1l-1.1-3.7l-0.3-4.9l1.6-2.1l7.4-4.9l5.1,3.2l4.4,1.5l1.7-0.5l4.5-3.9
		l4.4-5.3l0.5-1.2l6.1-0.9l4.2,3.1l1.8,0.4l2.1,0.1l2.7-0.1l1.5-0.2l1.1-0.2l1.2-0.4l5.4-2.7l-1.6-3.9l-0.9-0.8l-1.5-0.1l-0.9,0.3
		l-1.2,0l-4.9-0.8l-5.6-1.3l-8-1l-5.5,0.3l-1.3,0.3l-1.2,1.6l-0.9,2.4l-1.9,4.4l-4.7-4.1l1.8-2.7l1-0.8l1.2,0.1l1.7-0.9l-0.8-1.1
		l-4,1.3l-0.8,0.7l-3.2,0.4l-6,0l-4.1,5.2l0.7,0.8l2.7-1.8l4.8,1.9l0.1,1.4l-2.8,4.2l-1.7,1.7l-2.5,2.2l-2.3,0.5l-0.9,0.3l-1.1,1.5
		l-0.9,1.6l1.2,3.9l1,4.2l-0.1,2.7l-1.1,2.4l-4,1.4l-0.2,0.2l-1.2,0.7l-3,0.3l-4.3-1.8l-4.9-4.7l5.2-4l2.9-3.1l-4.6-0.7l-7.5-4.8
		l1.9-1.5l3.5,0.3l0.9,1.1l5.9-0.7l-0.8-2l-0.1-2.4l5.8-13.2l1.6-0.9l3.2,0.6l2,0.6l1.1,0.3l-1-1.4l-3.6-0.8l-1.2-0.2l-1.1,0.1
		l-2.8,0.6l-1,1l0.6,3.3l-0.3,1.2l-3.6,5.7l-1.4,0.1l-0.9-0.6l-0.3-1.3l-0.1-2.7l-1-0.6l-0.9,0.4l-4.2,3.7l-2.1,2.2l-1.4,2.4
		l-0.6,1.3l-3.1-1.5l0.4-7.7l2-2.5l1.5-0.5l1,0.5l0.5-1.1l-1.8-0.6l-0.7-1.2l-1.9-5.7l0-1.9l0.6-1.1l1.1,0.3l1.1,0.2l1-3.3l-0.7-5.8
		l-2.3-4.1l-3-4.5l-0.6-1.7l0.3-2l1.1-0.9l1,1.1l0.6,2.3l4.5,7.1l1.1,0.2l1.8-1.4l4.5,2.9l0.9,0.2l2.2-0.5l0.8-0.7l0.9-2.7l1.9-3
		l2.5-1.4l2.7-1.4l1.4,0.2l0.1,4.4l-0.1,2.9l2.8,3.8l1.7,0.9l1.3-1.5l2.2-8.7l-0.4-2.3l-1.2,1.3l-1.2,3.3l0.1,1.5l-1.1,2.6l-2.5-1.8
		l0-8.6l3.2-7.9l2.3-1.2l4.2,3l-0.2,3.5l1.5,2.6l1.5,0.8l0.7,0.7l1.9,3.6l0.8,1.8l-1.6,7.5l-1.3,1.5l-5.1,2.1l-7.2,4.5l1.1,0.4
		l3-1.1l7.2-2.8l2.1-1.3l3.5-3.6l0.9-7l-0.6-1.3l-2.6-3.2l-3.8-4.9l-0.7-5.3l1.3-1.1l4.5,0.7l1-0.5l0.8-0.9l0.5-1l-0.5-8l-1.5-3.7
		l-5.9-6.9l-2.1-1.9l-1-0.5l-1.7-0.3l-1.8-0.1l-3.3-1.5l-5.3-3.6l-0.8-1.4l-1.6-1.2l-1.7,0.3l-3.2,0.9l-1.1,1.3l0.5,1.1l1.5,0.6
		l1-0.3l1.5-1.1l3.4,1l3.4,1.8l4.9,4.2l5.5,5.5l0.9,0.4l4.5,1.2l0.8,1.1l-0.6,3l-2.3,2.6l-3.6,0.3l-2.7-1.8l-1-2l-6.4-2.8l-7.7-5.7
		l-2.5-1.6l-1.6,0.2l2.2,5.9l1.3,0.8l1.5,0.3l1.1,0l1.4-0.7l1.4,0.9l1,1.1l1.3,2.2l-2.4,4l-0.9,0.6l-1.5,0.3l-2.6,0.9l4.7-0.7
		l2.4-1.9l1.4-0.9l1.3,0.9l0.4,1.6l-1.3,1.3l-2.7,1.1l-2.4,1.2l-2,1.3l-0.6,1.6L457.6,1667.8L457.6,1667.8z M635.3,1844.6v6.5
		l-2.3,0.2l-0.3,0.1l-0.7-0.1l-0.5-0.2l-0.8-0.8l-1.4-1.6l-0.8-0.6l-5.2-2.5l1.5,2.7l0.4,0.5l0.5,0.6l0.9,0.7l1.6,0.7l0.4,1.3
		l-0.8,1.1l-1.2,0.6l-6.1,1.2l-4.1,0.5l-0.9,0l-0.8-0.2l-14.2-5.2l-2.7-1.1l-4-2.2l-0.4-1.5l0.2-0.7l1.1-1.2l0.2-0.7l-0.2-4.2
		l-0.4,0.1l-3,2l-0.3,4l-0.7,1.5l-13.5,3l-4.7,0.3l-1.3,0.1l-1.3-0.4l-1-0.7l-0.5-1.3l-0.1-2.2l0.6-1l0.8-1l2-3.5l0.2-0.9l-0.5-0.4
		l-3.3,4.3l-1,2.3l-0.4,1.1l0,0.7l-1.2,0.4l-1.5-0.4l-7.6-0.5l-4.2,2.2l-0.5,0.1l-0.5,0l-1.5-0.4l-0.8-0.6l-0.5-0.9l1.8-2.4l0.7-0.5
		l0.6-0.2l1.5-0.3l1.2-0.4l2.3-1.4l3.3-2.2l0.7-0.7l2.3-3.3l0.2-0.8l-0.3-0.4l-0.8-0.1l-2.3,0.1l-0.5,0.2l-2.6,2.8l0.6,0.6l1,0.6
		l-0.3,0.6l-1.8,1.1l-3.5,1.2l-2.8,0.7l-3.7-0.2l-0.9-2.1l0.5-1.7h1.7l3,0.4l0.4-0.5l-0.4-0.5l-0.6-0.1l-0.4,0l-2.4,0.7l-2.5,2
		l-3,3.8l-1,0.3l-0.4-0.5l0-0.8l0.4-0.8l0.4-0.6l0.6-0.8l0.4-0.6l0.3-0.7l1-4.3l-0.1-1.4l-1.7-0.4l-1,0.8l0.1,0.9l-0.2,0.7l-0.6,0.8
		l-4.1,2.4l-0.6,0.3l-3.6-1.6l-0.8-0.4l-0.4-0.5l0-0.7l0.5-0.4l0.6-0.1l0.5-2.1l-0.2-2.5l-2.7-3.7l-0.7,0.1l-1.8,2.1l-2.9,7.6
		l-0.3,1.5l-0.4-0.1l-0.6-0.4l-6.1-4.6l-0.5-0.6l-1.1-0.1l-1.1,0.4l-1.6,1.5l-0.8,1.1l-0.7,0.3l-3.7,0.2l-0.4-0.1l-0.9-0.3l-0.6-0.7
		l-0.4-1.2l-0.9-3.9l-0.3-3.9l0.3-3.1l0.5-0.5l0.6-0.1l2.1,0.8l1.8,2l0.5,1.4l0.1,0.7l0.5,0.8l0.7,0.4l2.9,1.1l2.4,0.8l0.5,0
		l3.6-1.9l-4.5-5.2l-0.9-0.5l-0.5,0.1l-1.3,0.7l-0.6,0l-1.7-1.1l-0.5-0.7l-0.3-2.1l2.2-1.3l1-0.1l0.9,0.1l0.4,0.1l0.7,0.7l0.4,1.7
		l2.7,3.9l0.7,0.5l0.6,0.3l1.4,0.4l2.8-1.1l0.2-0.7l-0.7-0.7l-2.3-0.3l-0.6-0.3l-0.4-0.5l-0.6-1.2l-0.4-1.5l0.6-0.8l0.5-0.1l5.4,2.4
		l2.7-1.3l-1.8-1.1l0.7-1l1.5-1.1l0.6,0l6.4,3.9l8.4,2.6l1.3-3.6l0-0.9l-0.1-0.8l-0.1-0.8l-0.4-1.7l0.4-0.8l1.6-1l1.5-0.5l1.7-0.1
		l1.3,0.1l4.2,0.4l0.4,0.1l1.5,0.6l0.2,0.6l-2.3,3.5l-1.5,3.7l-0.8,3.9l-0.8,5.3l1.3-1.6l2.9,2.6l-1.8-3.3l-0.3-0.6l-0.4-1.5
		l0.2-1.1l1.2-3.9l0.3-0.6l0.8-1.2l0.5-0.6l1.5-1.5l0.7,0l0.5,1.2l0.5,0.9l4,3.5l1.3,0.6l0.5,0.3l0.4,0.4l2,1.7l0.4,0.5l0.4,0.5
		l0.4,0.9l0.5,0.8l0.8,0.4l0.8,0.1l4.3-1.9l-3.6-2.7l-0.9-0.7l-1.6-0.9l-0.9-0.4l-1.9-1l-0.7-0.4l-0.8-0.6l-1.5-1.1l-0.5-0.7
		l-1.9-3.4l0.4-1.3l-0.1-1l-0.6-1l-0.5-0.7l-0.6-0.7l-0.9-0.7l-2.3-0.8l-0.8-0.1l-1.7-0.2l-3.3,0.2l-1.4-0.1l-0.7-0.2l-0.5-0.4
		l-0.7-0.7l-0.5-0.9l-1.5-6.2l1.5-0.5l0.9,0.8l2.9,2.1l5.1,2.7l11.7,6.6l7.2,6.8l0.7,0.3l2.7-3l0.1-0.7l-0.5-0.5l-2.8-0.7l-0.7-0.2
		l-0.9-0.9l-0.4-0.8l0.1-0.7l2.5-2.4l1.4-1.3l0.7-0.5l0.5-0.1l0.4,0.1l1.9,1.3l1.3,1.8l3.9,8.6l2.8,7.3l0.9,1.2l0.7-0.4l0.5-4.8
		l-2.6-6.2l-1.5-3.4l-0.7-0.5l-0.8-0.9l0.6-1.7l0.4-0.3l0.9,0l1.5,0.4l4.3,2.3l0.9,0.9l1,1.4l9.5,2.4l5.1,3.1l0.5,0.4l0.4,0.5
		l0.2,0.9l-0.1,0.7l-2.9,3.6l-0.4,0.3l-1.4,0.8l-0.5,0.6l-1.5,3.3l-0.5,1.1l1.2,3.6l0.4,0.4l0.4-2.3l1.4-3.5l1-2.2l0.4-0.9l0.5-0.7
		l1.2-0.9l0.8-0.2l0.5,0.2l0.4,0.5l0.5,1.3l0.6,1.7l0.2-0.2l0.9-1.6l-0.6-2.3l-0.4-0.9l-0.1-1.4l0.3-1l0.5-1.1l0.4-0.9l0.9,0
		l0.4,0.1l1.1,0.5l1.4,1.3l0.5-0.1l0.5-0.6l0.1-2.4l-0.6-0.7l-0.5-0.4l-2.5-1.6l-7.2-4.2l-5.3-2.5l-1-0.4l-3.2-1.4l-0.5-0.4
		l-0.5-0.6l-0.8-1.3l-4.2-1.7l-1.1-0.3l-0.8-0.1l-0.9-0.1l-0.8-0.1l-1-0.4l-3.4-1.4l-6.3-4.4l-0.7-0.7l-0.3-0.8l-3-10.1l-1.1-5.6
		l-0.2-1.5l-0.1-1.2l0.1-1.3l0.8-1.4l0.7-0.7l8.8-5.7l0.5-0.1l1.2,0.2l0.8,0.1l0.5,0l0.8-0.1l2-0.7l15.4-8.6l0.5-0.4l0.5-0.9
		l0.2-1.3v-0.7l-0.6-6.6l-0.4-0.9l-0.7-0.7l-7.4-0.6l-1.2,0.1l-11.1,1.7l-0.4,0.1l-1.6,0.6l-1.4,0.9l-1.6,1.3l-0.5,0.6l-0.9,1.5
		l-0.7,0.5l-5,2.3l-0.6,0.1l-0.4-0.1l-0.6-0.3l-0.8-0.6l-7-5.9l-0.2-0.7l-1.1-5l-0.2-3.2l0-0.9l1.1-11.5l0.2-0.9l0.2-0.7l0.5-0.8
		l2.9-3.5l0.5,0.5l-0.6,1.5l-0.1,1l0.8,3.1l0.7,0.2l4.4-1.4l0.6-0.2l0.8-0.5l0.5-0.4l0.4-0.5l0.4-0.5l0.3-0.6l1-3.7l0.1-0.8l-0.1-1
		l-0.4-0.7l-4-0.7l-1.8-2.9l-0.1-0.8l-0.4-0.9l-0.7-0.8l-0.9-0.4l-1.2-0.2h0.3l-0.8,0.6l-1.1,0.2l-0.5-0.1l-0.2-0.6l0.9-1.3l1.1-0.7
		l7.1-1.3l0.7-0.1l0.9,0.2l1,0.6l0.4,0.4l0.5,0.8l0.6,1.4l1.3,2l0.6,0.7l0.9,0.8l0.9,0.4l0.8,0.1l0.8-0.1l0.9-0.4l6.7-4l0.8-0.7
		l0.7-1l3.5-6l0.4-1.2l0.1-0.8l-0.2-5.1l0.8-0.9l0.8-0.7l4.4-2.3l1.4-0.4l2.2,2.8l0.4,0.5l0.2,0.6l0.2,0.7l0.1,0.8l0.3,0.8l4.3,5.9
		l0.4,0.4l1.2,1l1,0.7l1.1,0.3l0.6,0l1.1-0.5l4.4-2.2l5-3.3l0.5-0.4l0.5-0.8l4.5,1.8l3,2.3l-1.2,0.6l2.7,9.2l-2.7,30.8l2.7,4
		l-2.7,11.1l2.7,21.5l-2.7,10.3v22.1l2.7,1.4l-2.7,12.6L635.3,1844.6L635.3,1844.6z M397.2,1546.6l-0.5-0.1l-3-1.7l-0.8-1l1.1-2.2
		l1.2-1.1l2.5-1.7l1-0.4l0.9,0.6l1.4,1l-1.9-2.6l-1.1-0.2l-1.1,0.5l-3.3,2.7l-1.4,0.3l-1-1.8l0.3-2.9l0.8-5.8l-1.4-6.3l1.4-9.1
		l1.6-1.7l2.3-1.9l5.1-7.1l-1.6,0.6l-2.4,3.2l-4.4,5.2l-3.2,2.1l-0.6-1.3l-0.3-2.5l-1.4,1.8l-0.1,1.7l0.1,3.1l0.1,2.3l0.7,1.6l1,1.4
		l-0.9,8.1l-1.2,5.6l-1.3-0.3l-3.7-2.8l-2.9-5.8l-3.2-7.4l1-3.6l-0.8-4.3l-1.4-2.5l-1.7-1.7l-1.4,0.6l-1.2,0.7l-1-3.3l-0.2-1.9
		l-0.1-3.4l1.5-1.9l0.9-0.3l0.9,0.2l2.1,3.7l0.5,1.6l1.4,3l3.2,4.1l1.1,0.8l0.3,0.1l0.1-0.5l-1.5-2.6l-1.4-2l-0.7-1l-0.8-1.3
		l-1.7-4.1l0.1-2.9l1.9-0.5l0.9,1l2.2,3.6l1.2,0.4l3.4-4.6l0.4-1.2l-0.9-2.5l1.3,1l3.2,3.9l2.3,3.1l1.1-2.8l2.5-11.8l-2.5-3
		l-1.5-1.5l-0.9-0.6l-0.8-1.3l-2.2-4.8l-1.5-4.1l0.5-2.7l2.9-2.2l5.5-3.8l3.9-1l8,1.9l0.7,2.5l1,9l1,2.7l0.2,1.3l-0.3,7.6l1.3,6.5
		l0.2,1.3l0,5.2l-1.1,7.4l-0.8,2.8l-1,1.6l-0.4,2.3l0.9,2.7l-2,2.2l-2,4.2l0.1,1.8l2.6-2.7l-0.2-1.2l0.1-1.3l2.5-0.5l1,1.1l0.9,2
		l0.2,3.9l-2,11.9l-0.5,1l-2.5,3.1l-3.4,3l-1.3,0.4L397.2,1546.6L397.2,1546.6z M636,1881.1l-0.8-1.3l-0.9-0.3l-0.8-1.1l-0.7-1.8
		l-0.9-0.9l-1.1,0l-1.4,1.1l5.4,5.8l2.1-0.6l1.1-0.7l0.9-0.4l1.2-0.2l1.9,0.4l2.6,1.1l7,3.4l0.7,1.4l-0.3,1.9l-0.6,1.4l1.6,0.5
		l2.3-0.3l-1.6,3.6l2.4,4l1.2,0.5l1.9,0.2l-0.5,5.5l-2.8,2.8l-0.5,0.4l-0.2,0.1l-1.1-0.2l-0.5-1l-1.3-2l-3-3.5l-1.5-3.4l0.5-2.5
		l-4.2-3.6l-0.8-0.2l-1.3,1.6l-2.2,0.2l-2.6-2.4l-2.7-1.2l-5.2,0.1l-1.5,1.9l-2.1,0.9l-1,0l-1.7-1.3l-1.7-2l-1.1-2.2l1.2-1.9
		l2.5-0.8l1-0.2l0.9,0.4l1.3-0.3l0.5-3.3l-4.8,1.7l-0.6-1.3l0.7-3.8l1.1-3.3l1.5-1.7l0.4-1.2l-5.9,4.6l-2.4,0.6l-4.3-1.3l-1-0.6
		l-1-1l-0.8-1.4l-1.1-4.3l-4.9,0.9l-1,0.3l-0.8,0.6l2.4-0.2l2.6,0.3l1.1,3.9l-4,1.5l-0.6,2.7l3.2,5l0.1,4l3.3,0.8l2.6,0.2l-0.3,3.9
		l-0.7,0.7l-5.8-1.5l-3.9,0.7l-2.5-5.8l1-2.3l2-0.5l0.7-0.6l-2.7-1.5l-1-0.1l-3,2.6l-1.5-2.8l-3.4-1.6l0.2-2l1.1-2.2l2.9-2.3l1-0.3
		l1.2-0.6l0.9-1.3h-2.7l-1.8,1.1l-3.7,2.9l-6.1,1.8l-1,0.1l-2.5-2.4l2.2-0.4l0.9-0.7l-2.5-2.7l-4.5-0.2l-0.7-0.7l0.9-2l3.2-3.6
		l1.5-0.7l4.2-1l6.1-0.7l11.4-2.2l6.9-1.8l8.3-0.7l6.5,0.3l0.9-0.2l2.9-2.2l3.3-0.6l6-0.6l4.3,1.7l2.6,3.5l0.7,2.8l-0.5,1.9
		l-9.4,4.3l-0.7,1.1l-2.4,0.6l-5-1.4l-2.1-1.3l-1.5-1.5l-1.3-1.1l-0.8-0.6l-4.6-3.2H618l-0.7,1.6l3.6,4.1l2.7,1.7l4.4,2.6l6.8,0.3
		l5.7,0.1l2.5,0.2l3.9,2.6l2.6,2.9l-0.2,1.3l-11.3,1.7L636,1881.1L636,1881.1z M452.9,1781.2l1.9-1.3l0.4-6.3l-5.1,0.3l-1.7,1.2
		l-1.4,0.7l-1.1,0.4l-3.3,0.1l1.8-1.4l1.1-0.7l0.7-0.9l-0.4-2.6l-1.1-0.1l-1.5,0.2l-1.2-0.2l-0.8-0.8l0.1-2.6l0.5-1.3l0.7-0.7
		l1.7-0.3l1,0.8l0.8,0.1l0.9-0.7l1.2-1.2l0.8,0.1l3,1.6l0.7,1l0.5,1.2l1,1.7l1.1,0.7l3.4,1.1l1.1,0.1l3.6-0.1l3.5-0.6l-0.1-1.7
		l-1.2,0l-0.8,0.8l-2.6,0.2l-2.6-0.3l-1.2-0.2l-2.8-0.7l-1.2-0.8l-4.7-7.7l-0.9-2.5l1.7-0.2l1.4,0.5l2.1,1.1l7.1,1.4l-1-3.3
		l-1.7-2.4l3.7-1.2l2.9,0.3l3.4,1.4l1.5,7.1l-0.6,2.9l-0.7,2.5l1.2,3.7l2.3-6.8l0.3-2l-1.1-2.4l-0.9-2.5l2.8,1l2,2.5l2.4,5.4
		l3.3-2.7l3.9,0.6l1.8,1.1l1.5,2.6l-0.2,1.8l-1.2-0.1l-1.1,0.4l-0.7,1.3l1.6,4.3l1.3-1.9l1.4-1.7l4.3,1.7l0.9,0.7l3.7,4.8l-1.4,0.9
		l-0.7,0.2l-0.7,2.7l-1.3,0.8l-1-0.1l-3.1-0.7l-3.7,2.1v4.7l2,0.6l1.6,0.7l1.2,0.4l-0.2,3l-4,0.4l-4.1,4.1h-1l-0.8-1l-1.6-2
		l-3.3,1.7l-4.4,3.9h-2l-4.6-3.4l-1.2-1.3l0.8-1.1l4.4-0.1l4.5-3l1.9-11.2l-2.8-1.5l-1.1,0.7l-2.5,2.2l-1.2,0.5l-3.4-0.2l-0.2-1.5
		l-0.1-1.7l-1.4-0.6l-1.6,6.8l-0.1,1.6l-1.2,4.5l-3.5-1.6l-1.4-3.4l-1.3-3.7l-0.8-2.6L452.9,1781.2L452.9,1781.2z M655.3,1853.9h3.7
		l4-0.9l3.4,0.3l5.3,0.2l2.4-0.2l0.9,0.6l4.7,0l1.7,0.2l2.7,0.6l1.5,0.4l1.3,0.6l0.9,0.5l1.5,0.8l0.7,0.7l4.4,6.8l0.1,4.4l-1,3
		l-0.5,1.1l-0.4,0.6l-5.2,6.9l-0.4,0.3l-1.7,0.2h-0.5l-3.9-1.2l-0.6-0.3l-0.8-0.5l-0.5-0.6l-0.2-0.7l0.1-1.1l0.8-1l0.4-0.7l0.1-0.7
		l-0.3-0.6l-0.8-0.8l-0.8-0.6l-1-0.3l-1.1-0.3l-0.8,0l-0.7,0.2l-1.3,0.6l-0.5,0.5l-0.3,0.6l-0.4,1l-0.4,1.7l0.1,1.7l-0.4,0.5
		l-0.6,0.1l-5.5-0.4l-0.7-0.2l-2-1.2l0.6-0.7h0.4l-0.1-2.6l-1.2-2.1l-0.7,0.3l-5.1,2.7l-1.2,0.8l-0.3,0l-0.8-0.1l-0.7-0.3l-0.6-0.4
		l-0.7-0.7l-0.3-0.7l-1.5-7.2l0.2-1.1l-0.9-6.4l-0.8,0.2l-3.5,0.2l-1.2-1.5l-0.5-2.3l0.6-0.9l0.4-0.2l5.1-2.2L655.3,1853.9
		L655.3,1853.9z M450.6,1745l2.6-0.5l0.5,0.2l2.8,1.9l4.4,3.1l0.4,0.7l-0.4,0.9l-0.6,0.3l-0.4,0l-4.4-0.3l-9.6-2.6l-0.4-1.8
		l-0.2-0.8l-2.7-1.2l-1.1-2.4l-4.5-4.3l-0.6,0.2l-3.7-3.7l-2.4-3.1l-3.3,0.7l-1.6,0.9l-1.8,1.2l-9.1-0.4l-0.9-0.5l-0.9-3.8l-2.8-3.6
		l-0.8,0l-2.4-0.6l-3.1-2.5l-0.3-0.7l0.3-1.1l0.7-3.1l-1.1-1.7l-0.4-0.3l-1-0.2l-1.8-0.9l-0.5-0.4l-2-2.7l1.6-2.5l0.5-0.1l1.8,1.2
		l5.6,5.5l2.2,2.6l1.5,3.5l1.7,1.9l4.3,1l0.5-0.9l1.6-0.4l2.6-0.5l4,1.6l4.9,2.9l2.4,2.1l1.6,1l2.9,1.5l2.4,0.1l0.1-1.2l1.8,0.5
		l1.6,2.2l0.3,0.5l0.7,2.7l-0.4,0.8l-0.6,0.8l-0.4,0.9l1.4,3.9l0.4,0.7l0.6,0.3l1.5-2.7l-0.4-1.2l-0.4-1.4l-0.4-2.2l0.5-0.7l0.6-0.1
		l0.7,0.2l1.1,0.5l4.2,5.3l0.2,0.7L450.6,1745L450.6,1745z M531.2,1793.3l0.9,4.1l3.1,0.7l3.4-1.5l2.6,1.8l0.4,0.8l0.7,5l0.2,6
		l-4.7,7.2l-0.5,0.4l-0.7-0.1l-0.7-0.7l-1.5-1.9l-2.2-0.5l-3.6-1.7l-3.7-6.9l-0.2-1.1l0.3-1.1l0.5-0.4l1.2-0.1l0.6-0.3l0.3-0.5
		l-1.5-2.4l-3.2,2.6l-1.5,4.3l-0.2,0.7l-0.1,1.5l-3.9-0.9l-0.7-0.5l-0.8-2.1l-0.4-1.4l-0.3-1.2l0.2-0.9l2.3-2.8l-1-7.6l0.5-1.5
		l0.8-1l0.6-0.5l1.6-0.3l3.9,0.1l3.6,1.6l3,1.6l0.4,0.3L531.2,1793.3L531.2,1793.3z M559.2,1806l-0.3-0.1l-3-1.2l-1.5-0.7l-1.4-0.8
		l-0.5-0.4l-3.3-3.1l-0.7-0.8l-2.1-3.9l-0.7-6.1l-0.1-0.8l0.1-3.4l0.3-0.6l1.9-1.4l1.8-0.7l0.6,0.1l3.1,1.1l0.8,0.7l0.5,0.2l0.4,0.1
		l0.7-0.4l0.5-0.8l0-0.8l-0.4-0.9l-0.6-0.8l-0.5-0.4l-1.6-0.8l-0.3-0.5l-0.2-0.8l-0.2-4l0.2-0.9l1.1-0.3l0.5-0.3l0.5-0.4l0.6-0.6
		l0.8-0.9l0.5-0.7l0.3-0.6l0.3-1l0.3-1.2l0.3-0.8l0.3-0.5l0.6-0.5l1.7-0.3l0.6,0.6l-0.2,4.5l-0.2,0.7l-0.2,0.7l-0.1,0.7l-0.1,1.2
		l0,0.8l0.1,0.7l1.8,8.4l2.1,5.3l1.3,3.6l-0.1,0.9l-0.7,0.8l-0.8,0.3l-1.3,0.1l-0.4-0.1l-0.7-0.2l-0.6-0.3l-1-0.7l-1.1-1l-1-1.5
		l-0.5-0.6l-3.4-3.4l-0.2,0.7v0.8l0.4,2l0.2,0.6l0.3,0.5l0.7,1l0.6,0.6l0.4,0.5l0.7,1.2l1.5,5l0.3,1l0.6,4.6L559.2,1806L559.2,1806z
		 M516.1,1790l-1.9,2l0.4,0.7l0.8,0.9l1.4,5.4l-0.1,1.1l-2.3,3.3l-0.7,0.9l-0.5,0.1l-0.4-0.1l-1.4-0.4l-0.6-0.4l-0.5-0.4l-0.6-0.8
		l-3.3-5.2l-0.1-1l0.2-1.4l-0.3-0.6l-0.6,0l-0.4,0.9l-0.1,0.9l0.2,0.9l1.3,4.6l1.4,1.8l0.5,0.3l0.9,0.5l3.8,4.8l0,1l-0.4,0.8l-3.1,5
		l-0.4,0.3l-0.6,0l-3.3-0.8l-0.7-1.4l0.5-3.6l-6.1-6.2l-3.5-3.8l-0.5-0.6l-0.4-0.7l-0.2-0.7l-1.1-6.9l-0.2-1.5l0.2-1.1l1.6-0.3
		l0.4,0l0.4,0.1l2.4,1l0.5,0.6l0.5,1.3l1.6,0l2-4.8l0.6-1.8l1-0.5l0.8-0.3l8.5,3.1l2.6,1.4l-0.2,1.1L516.1,1790L516.1,1790z
		 M385.4,1559.3l-0.8,1.3l-4.9,6.5l-0.5,0.6l-0.9,0.3l-2.9-0.2l-0.4-0.2l-0.2-0.6v-0.9l0.4-1l1.4-0.9l1.1-1.4l1.8-2.6l-0.6-0.5
		l-2.7,0.8l-2,1.3l-4.1,1.8h-0.5l-0.4-0.4l0-1l0.5-4.3l1-3.4l1.1-3l0.3-0.8l0.5-0.6l0.5-0.3l0.7-0.1l0.7,0.3l2.7,1.1l0.2,0.6
		l-0.4,0.7l-0.4,0.3l-1.1,0.2h-1.6l-0.3,0.5l0.6,1.1l0.6,0.5l1.7,0.9l3.2,0.8l2.1-0.3l-0.1-3l-0.4-1.9l-2.7-0.9l-3-1.9l-3.2-2.7
		l-0.7-2.2l3.2-2.6l0.7-0.1l6.3,1.6l0.5,0.4l5.2,6.4l-2,1.9l-0.6,0.7l-0.3,0.6l1.7,0.1l6.5-1.6l0.7-1.6l-0.4-0.7l1.7-0.8l0.6,0.7
		l0.4,1.3l-0.1,2.1l-0.7,2l-7.6,4.5l-0.6,0.3L385.4,1559.3L385.4,1559.3z M397.7,1609.4l-6.4-3l-2.9-5.3l-0.2-0.7v-1l0.2-0.9l1-2.7
		l0.5-0.4l2.2,0.2l4.5,1.2l2.1,0.9l2.9-1.6l0.2-4.8l-0.1-1.2l-0.4-0.9l-1-1.1l-0.5-0.2l-0.7-0.4l-0.2-0.6l0.2-0.7l0.8-0.5l1.4,0.3
		l2.7,1.2l2.4,1.6l3.1,3.1l0.3,0.8l0.2,1l1,10l-0.8,3.5l-0.4,0.5l-0.5-0.2l-0.2-1.2l-0.6-2.2l-1.1-1.7l-0.6-0.2l-0.4,0.1l-4.4,2.7
		l-0.8,2.6l-0.3,0.5l-3.2,1.1L397.7,1609.4L397.7,1609.4z M567.7,1852l1.1,0.1l0.4,0.4l-5,2.3l-1.7,0.2l-0.8,0.7l-0.1,1.1l0.1,1.1
		l-0.4,0.6l-4.3,0.7l-1.3-0.1l-1-0.4l-0.9-0.5l-0.5,0.3l-0.5,1.1l3.1,1.3l6.3,0.8l4.9-0.8l0.6-0.1l2-0.1l0.4,0.2l0.2,1.3l0.6,4.1
		l-1.1,1.1l-1,0.1l-0.5-0.2l-0.5-0.4l-0.4-1l-1-1.1l-0.8-0.2l-0.4-0.2l-1.3,1.1l-0.1,1.5l0.4,0.6l1,0.6l0.8,0.1l0.4,0.3l0.2,0.7
		l-0.4,0.9l-5.7,2.6l-0.7-0.1l-0.4-0.5l-0.2-0.9l-0.1-1.2v-1.7l0.7-1.5l-2.2-2.6l-3.6,3l-0.8-0.2l-8.4-3.2l-2.7-2.3l-0.3-5.3
		l0.5-0.7l0.6-0.4l4.3-0.9l3.2,0.7l1.6,0.5l1.8,0.9l4.8,0.2l0.7-0.4l-2.1-0.9l0.3-0.7l3.9-2.3l0.5-0.2l2.4-0.1L567.7,1852
		L567.7,1852z M418.1,1592.2l-1-2.8l-0.5-0.6l-0.8-0.6l-1.7,0.9l-0.2,0.7l-3.3-1.3l-3.8-3.1l-0.4-0.5l-1.8-4.1l-0.3-0.9l-0.2-1.2
		l0.2-0.7l2.9-2.8l2.7-2.8l-2.9-1.2l-0.4,0l-1.4,0.5h-0.6l-4.1-2.1l2.3-2.1l0.5-0.4l1.2-0.8l0.7-0.3l0.5,0.1l6.5,4.3l3.4,7.9
		l1.4,3.4l2.1,5.6l0.2,1.2l-0.1,1.4l-0.5,2l-0.4,0.3L418.1,1592.2L418.1,1592.2z M584.3,1861.6l0.3-1.9l-0.1-0.8l-0.7-1.5l-1.1-0.4
		l-0.2-1l0.9-4.2l0.4-0.3l2.3-0.8l0.4-0.1l4.3-0.7l2.1,0.1l10.9,2.3l1.1,0.3l6.5,2.1l1.5,1.4l-0.7,0.5l-1.2,0.1l-7.2,1.8l-3.8,1.1
		l-5.7,1l-4.3,0.7L584.3,1861.6L584.3,1861.6z M429.4,1710.3l-0.4,0l-0.5-0.4l-5-5.9l-0.3-0.7l0-0.6l0.8-2.3l0.4-0.5l2.2-2.6
		l6.2-5.8l2.4-1.6l0.5-0.1l0.5,0.2l0.5,0.4l0.4,0.7l1.7,3.5l-2.2,7.9l-2.1,4.7l-0.3,0.6l-0.5,0.8l-0.7,0.3l-0.7-0.2l-0.4,0.1
		l-1.3,0.8L429.4,1710.3L429.4,1710.3z M388,1632.8l-0.4,0l-0.9-0.6l0.2-1.6l2.7-2.1l2-0.9l0.8-0.4l2.8-3.1l0.3-0.8l-0.4-0.1
		l-4.2,2.3l-0.8,0.7l-0.8-0.3l-0.4-0.7l-0.2-0.8l0.1-0.7l0.3-0.6l6.2-6.6l3-0.9l3.9-0.2l1.7,2.1l0.3,0.5l1,2.7l-0.3,5.1l-0.5,0.8
		l-1.6,1.8l-0.4,0.2h-0.9l-0.5-0.4l-1.4-4.5l-1.6,0.8l-0.8,1.8l-1.7,3.6l-0.5,0.3l-1.7,0.4l-1.5,0.1l-2.1,0.3l-0.7,0.4L388,1632.8
		L388,1632.8z M375,1589.9l-3.7-1l-0.8-0.3l-0.4-0.5l-2.3-6.3l0.3-0.8l1.8-1.8l1.2-0.8l0.5-0.1l0.6,0.1l1,0.7l0.2-1.7l-1.2-2.9
		l-1.1-0.9l-1.3-0.9l0.1-0.8l1.8-1.7l0.9-0.1l7.9,1.7l3.3,0.2l0.4,0.4l-0.2,0.8l-3.9,5.1l-0.6,0.2l-0.4-0.1l-0.7-0.2l-0.6-0.3
		l-0.7-0.6l-0.1,1.7l0.2,3.9l0.2,4.5l-0.6,1.9l-0.7,0.5l-0.6,0.2L375,1589.9L375,1589.9z M380.7,1536.3l-0.7-1.1l-2.2-2.7l-0.9-0.3
		l0.3,1.8l0.3,1.1l0,0.6l-0.5,0.3l-0.9-0.4l-1.2-1.2l-0.7-0.9l-1-2l0-0.7l0.2-0.7l-2.2-1.7l-4.3,4.1l-0.8-0.3l-1.1-2.4l-0.2-0.6
		l-0.4-7.3l1.6-2.1l6.9-0.7l0.5,0.1l0.5,0.4l0.6,0.7l1.4,2l4.3,8.7l0.2,0.6l0.8,4.3L380.7,1536.3L380.7,1536.3z M388.8,1672.1
		l-0.7-1.3l-2.8-8l3.4-9.1l0.7-0.9l1.2,1.3l0.1,0.7l-0.5,0.9l0.1,0.7l0.9,0.2l1.3-0.2l0.8-0.3l0.9-1.1l-1.2-7.5l-1.1-3.1l-1-0.5
		l-0.5-0.5l-0.1-0.7l0.4-0.7l0.7-0.5l0.5-0.3l0.8-0.2l2.4,0.9l0.6,0.8l0.2,0.7l0.6,5.5l0.2,2l-0.6,2.6l-1.9,7.6l-2,6.4l-1.9,3.4
		l-0.6,0.7l-0.5,0.4L388.8,1672.1L388.8,1672.1z M378.2,1487.1l-2-6.2l-0.3-0.8l-3.6,1.8l-1.2,2.2l-0.3,0.5l-0.5,0.4l-0.8,0.1
		l-5-3.9l-0.3-0.5l-0.2-0.5l-0.1-0.9v-0.7l0.1-0.8l0.1-0.7l0.6-1.7l0.4-0.6l2.8-0.9l6.3,0.4l0.6,0.2l1.4,0.6l0.4,0.4l0.8,1.1
		l2.8,7.8v0.7l-1.4,1.5l-0.4,0.3L378.2,1487.1L378.2,1487.1z M389.5,1499.1l-3.6-4.3l-5.7-1.9l-1.7-1.2l0.1-1l0.4-0.8l1.1-1.9
		l0.5-0.7l2.5-3.2l5.6,0.4l1,0.8l2.1,2.4l0.2,2.1l0,0.8l-1.4,9.7l-0.5-0.4L389.5,1499.1L389.5,1499.1z M375.7,1642.3l-0.3-0.9
		l0.1-4.8l1.6-1.7l1.6-2.6l0.4-3.1l0.1-4.3l-0.1-1l0.1-0.9l0.2-0.7l0.3-0.6l1.8-1.6l0.6-0.4l0.5,0l4.8,4.3l0.3,1.9l-0.1,1.8
		l-0.2,0.7l-0.6,0.5h-0.5l-0.6-0.5l-0.7-0.1l-0.4,0.3l-2.4,5.4l0.2,1.1l0.1,1.1l-0.1,1l-0.3,0.9l-0.5,1.1l-5.2,3.3l-0.4,0.2
		L375.7,1642.3L375.7,1642.3z M420.6,1689.1l-1.7-1.4l-1.4-2.8l-0.3-4.9l0.3-0.6l0.6-0.5l0.4-0.2l0.8,0.1l0.9,0.5l0.4,0.4l1,0.6
		l0.5-0.2l-1.5-3.4l-0.4-0.5l-1-0.8l-3.4-1.1l-2.2,0.3l-0.6,0.2l-0.9-0.1l-0.8-0.4l-1.1-0.9l-0.1-0.8l2.6-2.5l0.7-0.4l0.8-0.3l0.4,0
		l0.6,0.3l0.5,0.4l3,2.6l2.6,2.6l1.6,1.9l5.9,7.2l0,0.9l-1.6,1.2l-4.9,2.6l-1.2,0.1L420.6,1689.1L420.6,1689.1z M367.8,1498.8
		l-0.4-0.1l-4.3-2.4l-0.6-0.4l-0.2-0.6l2.1-4.2l2.1-1.4l0.5-0.1l0.7,0.4l2-1.8l1.1-3l1.8-2.4l0.7-0.5l0.7-0.3l0.5,0.2l0.6,1.4
		l1.5,4.2l0.2,0.8l-0.8,1.6l-0.7,1l-0.4,0.4l-5.5,6L367.8,1498.8L367.8,1498.8z M399.3,1595.9l-3.1-0.3l-1.5-0.5l-4.1-1.4l-0.5-0.8
		l-1-4.2l0.2-2.1l0.2-0.7l2.3-3l2.7-0.9l0.6,0.2l2.4,2.3l3.2,7.1l0.1,0.7l-0.4,2.3l-0.5,1.2L399.3,1595.9L399.3,1595.9z
		 M419.9,1661.5l-2.6-0.5l-5.5-3.4l-2.1-2.6l-2.9-8.5l5,1.7l7.8,6.4l3.1,2.2l-0.1,0.7l-1.6,3.5l-0.4,0.5L419.9,1661.5z
		 M539.7,1855.8l-0.7-0.1l-2.8-1.4l-2.1-1.8l-4.6,2.9l-0.6,0.3l-2.6-0.7l-1.8-4l2-3.8l1.8,0.2l5.9,1.3l2.5,0.8l1.1,0.8l1.3,0.6
		l0.9-0.2l0.8-0.5l0.6-0.8l0.5-0.1l2,1.5l1.2,3.2l-0.8,0.4l-1.3,0L539.7,1855.8L539.7,1855.8z M436.9,1678.5l-0.2-0.5l-1.1-2
		l-1.8-2.7l-2.7-2.8l-0.7-0.6l-2.3-1.6l-5-3l-0.5-0.4l-0.7-0.6l-0.1-2.2l0.7-2.5l1.4-1l0.5,0.1l0.7,0.6l6.5,6l2,1.9l1.4,1.4l0.4,0.7
		l2,4.5l0.8,3.4l0,1l-0.2,1.1l-0.6,0L436.9,1678.5L436.9,1678.5z M425.4,1653.1l-0.9-0.2l-0.6-0.3l-5.4-4l-0.8-0.7l-0.6-0.8
		l-0.1-1.1l0.3-0.6l1.8-0.4l1.7,0l2-3.4l-0.6-3.7l0.2-0.6l0.4-0.3l0.6,0.1l0.6,0.6l5.1,13l0,1l-0.5,0.7l-0.5,0.4l-1,0.5l-0.8,0.2
		l-0.4,0L425.4,1653.1z M683.4,1912.4l0.1-2.1l-0.4-0.4l-2.1-0.5l-2.3,0.6l-3.6-1.3l-0.2-1.7l0.5-3.3l4.4-4.9l2.3-1.2l0.7,0l3.3,10
		l0.6,2.7l-0.2,0.8l-0.9,0.8l-0.8,0.3L683.4,1912.4L683.4,1912.4z M392.6,1673.3l-0.2-0.1l-0.8-1.5l4-13.5l0.3-0.8l0.8-1.9l0.4-0.9
		l0.4-0.7l0.5-0.1l5,0.7l-0.2,0.9l-6.4,14.1l-0.4,0.5l-3.2,3L392.6,1673.3L392.6,1673.3z M492.1,1797.6l2.1,2l1.2,2.4l-1.7,3.6
		l-1.9,3.5l-0.8,0.3l-4.2,0.2l-1.5-0.2l-0.8-0.5l-0.4-0.5l-0.4-2.7l4.8-7.3l0.8-0.8l1.3-0.7l1,0.1l0.4,0.3L492.1,1797.6
		L492.1,1797.6z M432.4,1689.1l-1.6-2l-1.3-3.7l-3.3-2.8l-3-3.9l-0.3-0.5l-0.3-1.4l0.6-0.8l1.2-0.7l0.4,0l1.8,1.2l1.6,2.6l5.3,3
		l0.8,0.9l0.5,0.8l0.2,0.7l1,4.3l-0.2,1l-0.5,0.7l-1.7,0.9l-0.9,0L432.4,1689.1L432.4,1689.1z M448.2,1753.2l0.8,0.4l0.5,0.8
		l-2.7,3.7l2.5,3.5l0.3,1l-3.6,2l-0.8-0.3l-5.2-3.1l-4.7-3.6l-0.6-0.9l-0.7-1.3l0.1-0.7l0.7,0l1.4,1.5l1.3,1l0.8,0.6l0.7,0.3
		l0.4,0.1l1.6,0.1l3.3-1.2l-0.1-0.7l-0.4-0.3l-1.2-0.6l0.5-2.5l4.4,0.1l0.4,0L448.2,1753.2L448.2,1753.2z M379.7,1482.5l-0.8-1.6
		l-3.2-9.8l1.2-0.1l1.9,0.6l0.6,0.3l1.1,0.6l1.3,0.8l1.3,1l0.5,0.5l0.3,0.5l0.5,1l0.2,0.6l0.7,3l-0.1,0.7l-0.3,0.5l-3.9,1.7l-0.7,0
		L379.7,1482.5L379.7,1482.5z M408.4,1615.2l-5.2-2.5l-0.5-0.5l-1.1-3.3l0.2-1.7l4.1-3l0.7-0.1l0.4,0.2l0.5,0.8l2.4,5l0.2,0.6
		l0.1,0.7v1.7l-0.9,2.1l-0.5,0.1L408.4,1615.2L408.4,1615.2z M415.3,1616l-1.6-8.2l-0.5-3.4l-0.4-5.8l0.3-0.6l1-0.1l0.8,1.6l2.3,7.5
		l1.4,5.5l0.3,2.3l-2.2,2.7l-0.5,0.3l-0.5-0.1l-0.3-0.5l0.1-1L415.3,1616L415.3,1616z M569.8,1810.5h-0.5l-0.8-0.1l-5.2-2.1
		l-0.7-0.4l-1.5-2.3l-0.3-0.6l-0.1-0.8l0.2-1.2l0.4-0.8l0.5-0.1l0.8,0.2l6.8,2.7l2.3,1.4l0.7,1.1l-0.1,1l-0.5,0.8l-1,1.1l-0.5,0.2
		L569.8,1810.5L569.8,1810.5z M454.3,1801.3l-2.4-1.3l-4.7-2.2l-0.4-0.7l3-2.8l1.4-0.1l1.3,0.1l2.6,0.4l0.5,0.2l2.1,1.2l0.2,0.7
		l0.7,3.2l-0.6,0.7l-0.7,0.2L454.3,1801.3L454.3,1801.3z M701.5,1874.4l0.8,0.8l0.9,3.4l-0.6,1.6l-1.2,1l-0.7,0.2l-4.2-0.2l-1.9-0.2
		l-0.4-0.3l-0.4-3.3l1.1-1.8l0.9-0.5l3-1.2l1.1-0.1l0.7,0.2l0.7,0.3L701.5,1874.4L701.5,1874.4z M460.5,1667.7l-0.2-1.3l0.2-1.2
		l0.3-0.8l0.3-0.6l1.6-3.5l0.4-0.3l3.1-1.6l3.1-1.1l-0.2,2l-3.7,7.8l-1.1,0.4l-2.2,0.8l-0.8,0.1l-0.4-0.2L460.5,1667.7L460.5,1667.7
		z M423.2,1625.7l-0.5-0.3l-0.5-0.6l-0.7-4.2l0-0.6l0.4-3l0.3-0.6l0.4-0.2l0.7-0.1l2.8,0.5l1,0.7l0.2,0.9l0.5,3.1l-0.1,1.4l-3.7,3.1
		L423.2,1625.7L423.2,1625.7z M382.6,1473.1l-0.3-0.1l-4.2-2.7l-0.1-0.9l2.3-3.1l4.1-4.7l0.5-0.1l0.3,0.7l0.1,0.6l0.2,1l0,0.8
		l-0.1,0.8l-1,4.3l-0.9,2.7l-0.4,0.7L382.6,1473.1L382.6,1473.1z M397,1571.7l-0.8-0.3l-0.3-0.5l1.2-5.8l2.2-1.7l0.4-0.2l0.7,0
		l2.3,0.3l2.4,0.8l0.1,0.6l-0.5,0.9l-3.2,2.8l-3.2,2.6l-0.6,0.2L397,1571.7L397,1571.7z M409.7,1519l-0.4-2.3l-0.4-5.4l0.3-2.4
		l0.2-0.9l0.5-0.2l2.3,2l1,0.9l0.4,0.6l1.7,3.7l-0.2,0.5l-4.8,4.2L409.7,1519L409.7,1519z M383.4,1658.2l-0.3-0.3l-0.2-0.6l1-5.9
		l0.7-2.5l0.2-0.7l0.6-0.7l0.8-0.7l0.8-0.3l1,0.2l0.8,0.8l0.1,1l-0.4,2.3l-0.7,2.5l-0.6,1.9l-0.4,0.7l-0.4,0.5l-1.7,1.5l-0.9,0.3
		L383.4,1658.2L383.4,1658.2z M421,1630.3l-2.3-1.3l-1.5-1.1l-0.5-0.6l-0.5-3.3l-0.1-1.9l0.2-1.1l3-1.1l0.5,0.3l2,5.6l0.2,0.6
		l0.1,3.3l-0.2,0.7l-0.5,0.1L421,1630.3L421,1630.3z M712.6,1878.4l-1.8-0.5l-0.4-0.5l-0.2-1.2l0-0.7l0.7-2.8l3.4-2.4l0.9-0.1
		l0.6,0.1l2.7,1.2l0.5,1.2l-3.5,4.5l-2.3,1.1H712.6L712.6,1878.4z M562.7,1846.9l0.9,0.3l0.8,0.4l0.9,1.3l-0.4,0.7l-0.5,0.2
		l-7.1,1.5h-2.9l-2-1.2l-0.5-0.9l0.5-0.5l1.3-0.8l4.2-1.2l2.9-0.3l1.7,0.6L562.7,1846.9L562.7,1846.9z M385.1,1590.3l-0.5-0.5
		l-0.3-0.5l-0.9-2.7l-0.1-1.1l1.3-3.7l0.5-0.3l2.9,0.1l0.3,0.5l0.1,0.9l-0.3,8l-0.5,0.4l-1.2-0.1L385.1,1590.3L385.1,1590.3z
		 M485.6,1820.7l-0.5-0.2l-1.9-2.6l-0.6-2.8l4.3-2.5l0.8,0.1l4.2,1.7l0.2,0.7l-0.4,1.4l-2.7,1.2l-0.5,0L485.6,1820.7L485.6,1820.7z
		 M398.2,1668.5l0.4-1.4l0.2-0.7l0.4-0.7l5.9-6l1.4,0.8l0.8,1l0,1.8l-0.4,1.2l-2.2,1.5l-4.6,2.8l-1.7,0.8l-0.4-0.4L398.2,1668.5
		L398.2,1668.5z M567,1802.7l-0.4-0.1l-3.4-2.5l-1.1-1.2l-0.5-0.8l-0.2-0.9l0.3-0.7l0.4-0.3l6.5-1.2l0.4,0.6l0.4,1.2l0.2,1.3
		l-0.9,2.6l-0.6,1.2l-0.5,0.4L567,1802.7L567,1802.7z M432.3,1765.8l-0.4-0.2l-0.8-3.2l0.4-5.1l0.4-0.5l0.5,0.1l5,3.5l0.8,0.7
		l-0.1,0.8l-0.3,0.6l-3.9,2.7l-0.6,0.3l-0.6,0.2L432.3,1765.8L432.3,1765.8z M448.9,1724.7l-1.1,0.1l-0.5-0.1l-1.3-1.4l-0.3-0.6
		l0.4-0.8l0.7-0.1l0.4-0.2l-1.4-0.9l-1.5-0.5l-3.1-0.3l-0.7,0.1l-3.4,0.7l-0.8,0.5l-0.4-0.5l2-1.9l4.7-1.1l5.7,1.6l0.5,0.4l1.6,2
		l-0.5,2.8L448.9,1724.7L448.9,1724.7z M434.1,1653.1h-0.4l-0.9-0.2l-0.7-0.4l-0.3-0.5l-3.3-6.8l-0.1-1.2l0.3-0.6l0.9-0.1l2.6,1.4
		l2,2.7l1.1,2.6l-0.1,0.8L434.1,1653.1L434.1,1653.1z M672.8,1920l-1.2-3.3l-0.4-0.3l-2.3,0l-4.6,1.3l-0.5-0.2l-0.4-0.6l-0.1-1.1
		l0.6-1.4l1.2-0.3l0.4-0.1l1,0.4l0.8,0.2l1.5,0.3l4,0.1l1.5-1.1l0.4-0.2l1.7,0.5l0.7,0.9l-1.1,3.2l-0.4,0.5l-1.8-0.6l-0.5,0.1
		L672.8,1920L672.8,1920z M695.8,1858.6l1.9,0.5l4.2,1.6l0.5,0.7l1.5,5.1l-0.6,0.3l-0.8-0.4l-8.6-5.9l-0.4-0.9l0.2-0.7l0.3-0.4
		l0.8-0.1l0.7,0.2L695.8,1858.6z M397.3,1684.4l-2.4-2.4l-0.4-3.2l6.7-1.7l0.9,0.2l0.2,0.7l-2.8,5.3l-1.2,0.8l-0.8,0.3L397.3,1684.4
		L397.3,1684.4z M434.5,1625.4l-2.8-0.6l-0.4-0.3l-0.9-0.9l-0.8-2.4l0.2-0.6l0.9-1l1.5-1.5l0.7-0.2l0.7,0.2l0.7,0.4l0.5,0.5l0.4,0.5
		l0.3,0.5l0.2,1.1l-0.1,1.3l-0.6,2.3l-0.2,0.6L434.5,1625.4L434.5,1625.4z M387.4,1468.7l-0.9-0.1l-0.5-0.4l-0.1-0.8l1.4-3.4
		l0.7-0.9l3.3,0l1.9,0.3l1.1,0.6l-3.5,3.4l-0.7,0.5l-0.5,0.3l-1.2,0.4L387.4,1468.7L387.4,1468.7z M396.4,1676.2l-0.7-0.2l-0.4-0.5
		l-0.2-0.7l0.1-1.3l0.5-1.4l6.8-4l0.5,1.2l-3.2,5.6l-2.4,1l-0.7,0.2L396.4,1676.2L396.4,1676.2z M668.3,1901l-0.4-0.5l1.4-7l0.6-0.8
		l0.8-0.5l0.6,0l0.7,0.7l0.4,0.5l0.6,0.8l0.4,0.5l0.4,1.1l-0.1,2.3l-2,1.5l-0.8,0.6l-1,0.4L668.3,1901L668.3,1901z M574.4,1859.4
		l-0.4-0.1l-0.6-0.3l-0.6-0.6v-0.7l0.5-0.6l0.5-0.4l5.6-3l0.7-0.3l0.6,0l0.4,0.3l0.5,0.7l0,1l-1.3,2l-3.6,1.5L574.4,1859.4
		L574.4,1859.4z M424.1,1744.2l-0.2,0.8l-1.7,2.9l-1.1,0.7l-2.4,0.8l-0.7-0.1l-0.4-0.3l-0.7-0.9l-0.1-0.7l2.1-2.1l1.6-1.5l1.6-1.2
		h0.5l0.5,0.4l0.8,0.8L424.1,1744.2z M686.9,1919.5l-4-2.1l-2.4-2l0.2-0.9l0.4-0.3l0.7-0.2l2.1,0.2l2.8,0.9l1.3,1.9l0.1,2.4
		L686.9,1919.5L686.9,1919.5z M431.7,1658.3l-3.1-0.6l-0.4-0.4l-0.3-2.9l1.2-2.4l0.5-0.4l0.5,0.1l0.4,0.4l0.4,0.5l0.7,0.9l1.7,2.8
		l-0.2,0.9l-0.8,0.8L431.7,1658.3L431.7,1658.3z"/>
	<path id="CL-TA_1_" class="st1" d="M569.6,71.2l6.2-0.3l6-3.7l6-4.5h10.9l6.1,3.7l6-0.8l0.8-4.5l3.8-3.9h5.8l0,0l-0.5,1.2l2.5,4.5
		l4.5,3.1l1.6,1.4l3.2,3.6l0.6,0.6l1.3,0.6l1,0.3l1.2,0.6l2.3,2l1.8,2.6l-4.2,4.3l-0.8,1.1l-1.1,1.7l-3.3,3.9l-0.1,1.6l2.5,1.8
		l2.3,2l1.7,3.4l-2.1,5.6l-1.3-0.1l-1.5,0.2l-4.9,1.3l-0.3,1l0.7,0.9l1.8,4.1l0.7,4.1l-1.2,0.6l-0.8,0.9l0.1,2.1l0.5,1.1l0.6,0.8
		l1.3,1.4l1.1,0.8l1.2,0.6l1.1,0.5l1.1,0.4l0.8,0.4l2.2,1.5l1,1.1l-0.2,0.8l-1.4,0.9l-0.8,0.7l-2.1,1.9l0,5.7l0.2,0.9l0.1,0.1l0,0
		l-2.9-0.2l-6.9-0.9l-3.4,0.4l-0.9,0.2l-0.7,0.4l-0.4,1l0.6,0.8l1.1,0.6l3,1.2h1l1-0.1l2.1-0.5l1.1,0.3l0.5,1l-0.3,1.7l-0.4,1.1
		l-1.6,2.9l-0.6,1l-0.5,1l-0.2,1.2v1.3l-3.5,1.5l-4.8,0.5l-10.3,3.1l-12.3,2.9l-2.9,0.6l-2.7-1l-2.4-0.4l-4.3-0.5l-1-0.1l-4.2,0.2
		l-0.6,0.2l0,0l-1.2-2.4l-0.2-1.3l0.9-1.4l-2.1-8l-0.9-2.1l-0.8-1.7l0.6-2.2l0.7-1.3l-0.3-2.1l-0.6-1.1l-0.6-0.5l-1.4-1.3l1.6-16.5
		l1.1-3.7l0.2-1.1l-1-2.5l0.4-3.1l0.5-1.2l0.4-1.2l0.1-3.1l0-1.1l-0.5-2.7l-1.4-10.6l-1.2-6.2l-1.3-4.9l-1.7-3.1L569.6,71.2z"/>
	<path id="CL-AN_1_" class="st1" d="M638.6,139.6l1.1,0.2l1-0.1l1.2,0l8,12.1l1.7,2.6l0.1,12.9l0.7,0.8l1.3,1.6l0.7,1.3l0.7,2
		l0.6,3.1l0.1,0.9l0.1,1.5l-0.1,1.4l0.1,2l3.6,3.6l1,0.5l1.2,1.8l0.9,5.6v1.4l-0.4,1.1l1.7,5.2l1.7,5.3L664,213l0.3,4.8l3.4,2.1
		l8.8,1l10-2l6.2-1.3l3.2,3.3l4.3,4.3l-1.9,5.1l-1.9,4.9l-1.8,4.9l-0.5,1.4l-7.6,26.4l-12.4,5.3l-10.6,4.5l-11.9,4.9l-2.6,1.1
		l-1,2.1l-1.7,2.1l-1.9-0.3l-1,0.6l-3,4.3l-1.8,2.8l-1.3,2.5l-1.1,2.2l-0.1,1.3l0.9,2.4l2,1.1l5.9,9.6l-2.6,1.3l-2.7,0.4l-0.4,0.4
		l-0.7,1.2l-0.8,3h-0.2h-2.1l-1.6,0.2l-1.2,0.8l-1.6,1.3l-1.3,1.2l-0.9,0.7l-0.9,0.2l-1.9-0.1l-1.5-0.2l-1.2,0.2l-1.4,0.5l-1.1,0.6
		l-0.8,0.6l-2,1.5l-0.8,2.1l-0.4,3l-0.8,1.5l-0.8,0l0.4,7.6h-11.3l-1.5,4.4l-3.8,0.8l-3.8,4.5l-6.1-4.5l-3.1-4.1l-0.5,0.1l-2.6-0.2
		l-1.1-0.2l-1.4-0.1l-1.4,0.6l-0.7,0.4l-1.4,0.9l-0.9,0.8l-4.9,3l-2.7,0.3l-3.6,0.5l-1.7,0.3l-1.1,0.3l-1,0.4l-0.7,0.4l-0.7,0.4
		l-2.1,1.6l-1.8,2.6l0,0l1.1-1.9l0.2-0.8l-0.1-1.4l-0.8-2.3l-1.1-1.1l-0.8-0.9l-1.3-3.1l1.2-4.5l0.7-2l1.9-4.1l2.3-3l1.4-1.1
		l3.3-4.5l1.5-4.5v-2.4l-1.7-2.3l-1.8-2.5l0.2-5.6l-1.2-2.5l-0.7-2.3l-1.4-5.3l0.6-6.7l0.8-6.8l0.3-2l-0.5-0.9l0.7-3.5l0.6-2.1
		l0.4-0.8l0.3-2.9l-0.2-2.5l-0.7-1.5l0-1.4l0.4-5.2l0.5-2.9l1.2-1.5l1-0.8l0.6-1.1l0.8-2l0.4-1.1l2.1-1l0-1.7l-0.3-1.3l-0.5-1.3
		l-0.5-0.6l-1.2-0.9l-1-0.5l-0.8,0.4l-1,2.3l-3.1-0.6l0.8-5.1l0.2-6.1l0.7-6.9l1.3-1.5l1.3-0.6l0.3,1.8l0.7,1l2.2-0.4l1.2-0.6
		l0.7-0.7l0.6-0.8l0.4-0.7l1.1-2.6l0.8-2.3l-0.2-1.2l-0.3-0.9l-0.4-1.9l1-6l0.9-8.1l0.6-5.7l0.7-6.3l0.5-2.6l0.8-3.1l1.4-10.5
		l-0.2-1.3l-0.1-2.8l0.7-2.2l1.7-1.5l0.2-2.1l1.2-4.4l0,0l0.5-0.2l4-0.2l0.9,0.1l4.2,0.5l2.3,0.4l2.6,1l2.8-0.7l11.9-2.9l9.9-3.1
		l4.6-0.5l3.4-1.5v-1.3l0.2-1.2l0.5-1.1l0.6-1l1.5-2.9l0.4-1.1l0.3-1.8l-0.4-1l-1.1-0.3l-2,0.5l-0.9,0.1h-0.9l-3.2-1.2l-1.1-0.7
		l-0.6-0.8l0.4-1l0.8-0.4l0.9-0.2l3.6-0.4l7.4,0.9l3.1,0.2l0,0l0.2,0.4l0.9,0.9L638.6,139.6z"/>
	<path id="CL-AT_1_" class="st1" d="M635.7,323.6l-0.8,3.3l-0.2,0.8l-0.1,1.3l0.1,1l1.7,5.1l2,4.3l0.3,1.1l1.5,6.9l2.1,10.9
		l-0.8,1.2l-2.3,2.1l-1.5,1.1l-1,0.8l-0.7,0.9l-0.5,2l-0.1,1.3l-0.1,2.4v0.9l0,2.1l0.2,0.9l0.4,0.9l1.1,1.7l4,4.8l5.4,8.4l0.3,0.9
		l-1.4,4.8l-1.2,0.7l-1.5,0.8l-0.7,0.4l-9.1,3.1l-1.9-1.2l-1.7-0.3l-1.7,0.1l-1,0.5l-1.5,2.5l-0.8,1.4l-0.4,1.3l0.4,1.7l-1.3,3.7
		l-5.5,10.3l-1.1,1.2l-1.5,4.5l-0.3,1.8l-1.4,5.6l-0.4,1l-0.5,1.1l-0.6,0.8l-1.1,0.3l-1.4,0.1l-1.4,0.7l-1.2,2.7l-0.4,1.9l-0.5,1
		l-1.8,2.4l-5.2,5.8l-2.8,2.4l-1.9,1.4l-0.3,6.1l-0.3,1.5l-1.2,0.7l-3,3.4l0,2.2l0.3,1l0.4,1l0.2,1.5l-1.3,3.9l-1.2,5.7l0.1,2.4
		l-0.2,1.1l-0.5,0.8l-1.2,0.8l-2.4,0.3l-2.3,2.7l-2.6,3.9l-0.2,2.7l0.2,1l1,2.2l1.5,4.9l0.1,0.5l0,0l-4.6-0.4l-6.8-3l-3-1.5
		l-5.3-1.5l0.2-1.2l0.1-1.7l-0.5-1.8l-0.5-0.7l-5.1-5.9l-0.9-0.9l-1.1-1l-1.2-0.8l-1.1-0.7l-1.2-0.4l-2.9,2.3l-1.5,3l-3,7.5l-6,0.8
		l-3-4.5l-2.5-5.5l-0.5,0.3l-0.8,0.4l-4.6,1.1l-1.5,0.3l-1.4-0.1l0,0l0.6-3.3l-1.1-5.8l-0.1-3.5l0.3-1.1l1.3-1.5l3.5-3.4l3.1-3.8
		l0.3-2.3l0.2-2.6l0.9-1.9l1.1-1.7l2.6-5.5l0.2-5v-3.6l1.8-8.4l1.4-5.1l0.9-2.6l1.4-2.7l1.4-2l1.7-0.8l2-1.5l0.8-5.9l-0.7-2.3
		l-1.1-4.3l-1.2-6.7l0.3-1.1l0.5-1.2l0.9-0.7l2.3-0.5l1.9-2.7l1.1-2.2l-0.6-2.7l-0.7-1.4l-0.2-1.1l4.7-11.6l0.4-1.5l0.4-5.4l1.7-5.8
		l-2.1-4.3v-1.4l1.4-3.4l0,0l1.8-2.6l2.1-1.6l0.7-0.4l0.7-0.4l1-0.4l1.1-0.3l1.7-0.3l3.6-0.5l2.7-0.3l4.9-3l0.9-0.8l1.4-0.9l0.7-0.4
		l1.4-0.6l1.4,0.1l1.1,0.2l2.6,0.2l0.5-0.1l3.1,4.1l6.1,4.5l3.8-4.5l3.8-0.8l1.5-4.4h11.3l-0.4-7.6l0.8,0l0.8-1.5l0.4-3l0.8-2.1
		l2-1.5l0.8-0.6l1.1-0.6l1.4-0.5l1.2-0.2l1.5,0.2l1.9,0.1l0.9-0.2l0.9-0.7l1.3-1.2l1.6-1.3l1.2-0.8l1.6-2.9l2.1,2.7l0,0l-0.2,0
		l-0.8,1.7L635.7,323.6z"/>
	<path id="CL-CO_1_" class="st1" d="M523,489.4l1.4,0.1l1.5-0.3l4.7-1.1l0.8-0.4l0.5-0.3l2.5,5.5l3,4.5l6.1-0.8l3-7.5l1.5-3l3-2.3
		l1.2,0.4l1.1,0.7l1.2,0.8l1.1,1l0.9,0.9l5.1,5.9l0.5,0.7l0.5,1.8l-0.1,1.7l-0.2,1.2l5.3,1.5l3,1.5l6.8,3l4.6,0.4l0,0l0.1,0.4l0.1,2
		L582,509l-0.2,1.2l0.2,1l0.5,0.7l1.2,0.8l0.1,0.3l0.4,3.5l-0.1,5.3l-0.4,2.5l-0.2,1.1l2.4,4.6l0.8,0.7l0.5,1.1l-0.1,2.1l-2.6,6
		L583,542l-2.3,1l-1.2,0.1l-0.8-0.1l-3.2,2l-3,5.3l-1.6,3.5l-0.7,1.8l-1.8,6.5l-0.4,3l-0.2,1.8l0.1,1.1l1.4,1.7l-0.1,1.5l-2.6,2.8
		l-2.6,0.9l-0.8-0.9l-2.7,2.9l-0.4,1l-1.1,6.3l-0.3,6.6l-0.4,2.7l-0.3,1.5l4.9,12.1l0.5,0.7l0.7,0.9l0.7,0.5l1.5,0.3l2.7-0.2
		l0.8,0.4l1.8,2.1l0.2,1.2l-1.2,3.5l-1.6,0.2l-1.6,1.8l1.2,6.4l-0.2,1.7l0,0l-3.6,0.5l-1.1-0.7l-0.3-1.1l-0.6-2.2l-1.1-0.9l-1.1-0.3
		l-0.8,0l-1.1,0l-1.8-0.3l-1.8-1.3l-0.1-1.1l-0.1-1.5l-2.7-1.6l-11.8,0.4l-1.2,1.9l-1.8,2.1l-0.8,0.5l-8,1.8l-1.6-0.1l0,0l-1.1-0.4
		l-1.8-0.9l0,0l-1.1,0l-0.9,0.6l-0.8,0.9l0,0l0.2-4.3l0.4-2.2l0.2-1.1l-0.9-1.8v-3.9l1-5.5l-1.1-2.7l2.8-4.6v-2.8l-4-1.2l-2-9.4
		l-1.5-6l-3.4-0.8V576l3.6-2.4l0.2-4.1l-0.5-1.6l-0.6-1.1l-0.2-1l0.1-6.4v-4.6l-0.8-4.4l0.1-2.4l0.7-7.3l1.3-3.1l1.2-0.4l0.5,0.7
		l1.3,0.5l0.9,0.1l1.4-0.7l4-4.1l0.8-1.4l1.8-8.9l1.9-2l-0.1-3.3l-1.2-1.2l-0.7-2.6l0.2-8.7l0.6-3.3l0.5-1.5l0-1l-1.2-4.2l-0.5-0.9
		l-0.9-0.9l-2.1-1.5l-0.9-0.5l-0.8-0.6l-0.4-1L523,489.4z"/>
	<path id="CL-RM_1_" class="st1" d="M578.2,720.1l0-1l-0.3-0.9l-1-0.7l-1.9-0.7l-1.3-1.3l-0.2-1l0.1-3.1l-0.5-1.9l-0.7-0.5l-1.1,0.1
		l-1.1,0.8l-0.9,0.2l-2.7-0.9l0.4-2.4l-1.5-5l-0.9-0.8l-1.4-0.5H562l-4.6,1.8l-1.5,1l-2.8,0.2l-1.1-0.4l-3.2,2l-5.1,5.9l-0.2,1.1
		l0.1,2l-3.2,0.7l-3.7,0.1l-0.1-0.1l-3.2-4.6l-4.9-2.1l-2.5-4.5l-6.3,0.4l-3.8-1.6l0,0l2.1-1.3l0,0l1.3-4.3l0.8,0l2.2,0.1l2,0.6
		l1.3-0.1l1.9-2l1.7-6.4l-1.4-3.5l-0.6-3.2l0-0.9l1-0.5l2.7-2.8l1.2-1.6l0.3-1.1l-0.1-3.3l0.5-1l2.4-0.4l2.4-0.1l2.7-1.8l-0.1-5.8
		l-0.5-2.1l0.4-1.7l0.8-0.4l4.5-1.7h5.3l3.7,0.9l2,0.7l1.6,1.5l0.5,1.8l1.3,1.9l0.9,0.1l2.5-2.1l0.9,0.1l2.7,3l4,1.8l3.2-2.8l2-1.1
		l0,0l0.6,1.1l-0.2,2.1l-0.4,1.4l0.2,1.2l3.7,5.5l1-0.1l0.8-1.4l1.1-1.1l1-0.2l1.1,0.4l2.8,1.6l1.1,5l-0.3,1.2l-1,1.2l-2.3,5.4
		l-1.4,10.4l0,2.3l0.8,3l1.4,9.6l1.2,6.4l-2.7,2l-1.8-0.1l-0.9-0.2l-1.1,0l-1.7,0.3L578.2,720.1z"/>
	<path id="CL-VS_1_" class="st1" d="M525.9,623.1l1.6,0.1l8-1.8l0.8-0.5l1.8-2.1l1.2-1.9l11.8-0.4l2.7,1.6l0.2,1.5l0.1,1.1l1.8,1.3
		l1.8,0.3l1,0l0.8,0l1.1,0.3l1.1,0.9l0.6,2.2l0.3,1l1.1,0.7l3.6-0.5l0,0l0.3,0.9l2.7,1.2l0.5,1.4l3,6.1l0.3,1.4l-0.2,1.7l1.5,1.7
		l2.4,2.4l3.5,4.5l0.4,3.8l-1.7,2.8l-1.1,3.3l-2,2.6l-1.1,2.1l0,0l-2,1.1l-3.2,2.8l-4-1.8l-2.7-3l-0.9-0.1l-2.5,2.1l-0.9-0.1
		l-1.3-1.9l-0.5-1.8l-1.6-1.5l-2-0.7l-3.6-0.9h-5.3l-4.5,1.7l-0.8,0.4l-0.4,1.7l0.5,2.1l0.2,5.8l-2.7,1.8l-2.4,0.1L533,671l-0.5,1
		l0.1,3.3l-0.3,1.1l-1.2,1.5l-2.7,2.7l-1,0.5l0,0.9l0.6,3.2l1.5,3.6l-1.7,6.3l-1.9,2l-1.3,0.1l-2-0.6l-2.2-0.1l-0.8,0l-1.2,4.3l0,0
		l-3.6,2.4l0,0l-1.4,1.7l-1.4-0.2l-1.5-0.3l-1-0.8l-1.8,0.1l0,0l1.2-4.2l1.3-3.1l1-0.4l1.4-0.3l1.1-0.6l1.4-1.2l0.7-1.8l0.2-0.9
		l0.2-1.5l0.4-3.5l-2.1-8.4l-0.5-5.3l-1.9-6.9l0.4-0.8l1.8,0.1l5-3.7l1.8-5l0.9-6.3l1.6-3.1l0.4-1.3l0.2-1.4l0-6.5l1.4-4.4l-2.4-4.2
		l-1.6-2.4l-1.1-2.7l0,0l0.9-0.9l0.9-0.6l1.1,0l0,0l1.8,0.9L525.9,623.1L525.9,623.1z"/>
	<path id="CL-AR_1_" class="st1" d="M446.1,912.6l0.2,0l0.8,0.4l1.2,0.7l3.2,2.1l10.2-10l0.6-1.2l0.3-0.9l0.3-1.5l-0.7-1.2l-1.4-0.7
		l-1.4-3.8l4.6-7.1l1.1-1.3l0.4-4.4l-0.5-1l-2.4-0.2l-0.8-1l3.6-4.5l5.3-0.8l1.6,0.9l1.6,1.1l1.4,0.8l5.3,1.3l3.3-0.1l2.4,2.8
		l1.1,2.7l2.4,3.4l1.8,1.1l0.8,0.3l1.3,0.2l1.4,0.4l1,0.5l3.3,2.8l0.5,1.2l1.2,1.5l0.8,0.6l5.8,1l4.8-0.5l1.1-0.3l1.3,0.5l1.2,1.8v2
		l-0.2,1.5l-0.1,1.6l0.2,1.1l0.8,2.9l0.5,1l1.4,1l0.6-1.2l0.5-1.2l0.6-0.7l3.4-1.6l2.5-1.3l0.7-0.6l0.6-1.7l4-0.9l8.9-0.2l2.5,0.4
		l0,0l-0.1,2.2l-0.5,3.6l0.4,2.8l1.2,6.4l0.8,1.7l1.7,1.7l1,0.6l1.4,1.1l0.7,1.7l-0.2,1.6l-1.2,5l-2.4,2.5l-0.9,0.4l-1.9-0.1
		l-1.2-0.1l-1.1,0.2l-1.7,0.9l-5.5,3.2l-3.7,2.2l-1,0.7l-1.3,1.2l-0.7,1.1l-0.3,1.2l-0.2,2.6l0,1.3l0.4,1.3l0.4,3.1l0.6,5.5
		l-0.6,4.5l-1.8,5.2l-1.4,6.3l-0.3,1.9l-0.5,0.9l-3.6,0.2l-1-0.5l-1.6-2.3l-0.6,0l0,0l-0.1-1.1l-0.2-1.2l-0.5-1.2l-0.8-0.1l-2.6-0.1
		l-2.2-1.5l-1.1-1l-1.2-0.8l-1-0.3l-6.2-0.5l-1,0.2l-1,0.5l-1.1,1.1l-0.8,0.8l-1,0.5l-3.7,1.4l-1.5-0.2l-1.8-0.9l-5.7-2l-1.1,0
		l-2.9,0.5l-1.1,0.1l-1.2-0.1l-1.1-0.2l-1-0.7l-1.1-1.3l-1.1-2.1L472,961l-0.9-0.7l-5.6,0.1l-1.9,2.4l-0.8,1.3l-1,1.1l-1.2,0.6
		l-1.2,0.1l-1.1-0.1l-1-0.2l-1.3-0.4l0,0l1-1.7l-0.3-5.5l-2.2-7.7l-6.8-19.5l-2.3-7.5l-0.9-5.9l0.1-1.6l0.7-2.8L446.1,912.6z"/>
	<path id="CL-LI_1_" class="st1" d="M517.8,702.3l3.8,1.6l6.1-0.4l2.4,4.6l4.8,2.1l3.1,4.7l0.1,0.1l3.6-0.1l3.1-0.7l-0.1-2l0.2-1.1
		l5-6l3.1-2l1,0.4l2.8-0.2l1.5-1l4.5-1.8h1.3l1.3,0.5l0.9,0.8l1.5,5.1l-0.3,2.4l2.7,0.9l0.9-0.2l1.1-0.8l1-0.1l0.7,0.5l0.5,1.9
		l-0.1,3.1l0.2,1l1.2,1.3l1.8,0.7l1,0.7l0.3,0.9l0,1l0,0l-0.2,0.5v2.8l0.3,2.1l-3.9,6.2l-3.1,6.2l-2.5,9.1l-2.3,6.8l0,0l-0.3,0
		l-2.2-0.2l-6.9-0.7l-4.3-3.4l-1.6-1.7l-0.7-0.5l-10.6-3.3l-1.4-0.4h-1.1l-6.7,0.6l-3.1,2.8l0.1,1l0.2,1.6l-5.8-1.1l-5.8-0.4
		l-3.9-1.2l-5.2-2.2l-1.3-2l-2.2-2.8l-0.7-0.5l-1.1-0.5l0,0l0.4-1.8l0.6-6.3l-0.3-2.8l-0.1-1.8l0.8-1.3l1.4-0.8l0.4-1.2l0-2.4
		l-0.2-3.5l-0.8-1.1l-0.3-0.9l0.1-1.6l4.5-8.5l1-1.4l0,0l1.8-0.1l1,0.9l1.4,0.3l1.3,0.2l1.3-1.7l0,0L517.8,702.3z"/>
	<path id="CL-LL_1_" class="st2" d="M401.7,1181.7l-0.7,0.7l-0.9,0.1l-1-0.1l-0.6,0.1l-0.8,0.3l-0.5,0.2l-1.4,1.1l-0.3-0.1l-0.6-0.4
		l-1.3-2.1l-0.2-0.5l-0.2-0.5l-0.2-0.5l0.1-0.9l3.3-1.6l0.5,0l3.3,1.7l0.4,0.4l0.9,0.9L401.7,1181.7L401.7,1181.7z M448.8,1124.9
		l-0.1,1.8l-0.7-0.1l-0.4-1.4l-0.2-0.5l-0.2-0.5l-0.6-0.5l-3.6-1.9l-0.5-0.2l-1.2-0.3l-0.5-0.4l-1.1-3l0.1-0.5l0.6-0.2l0.9-0.1
		l1.3,0l0.9,0.2l0.7,0.5L448.8,1124.9L448.8,1124.9z M430.6,1087.5l-0.8,1.1h-1.1l-1-0.7l-0.8-0.2l-0.6,1.1l1.3,1.5l3.4,1.2l1-0.8
		l1.6-1.1l4.1-2.5l3.8-0.5l1.1,0.1l2.7,1.8l-0.9,6.8l3,4.6l-0.6,1.7l-1.1,0.4l-0.3,1.1l0.5,1.4l2.6,1.8l1,0.2l1,3l-0.4,1.9l-0.5,1.2
		l-4,0.9l-2.1-0.3l-0.9,0.1l-2.6,1.4l-0.9,0.5l-0.6,1l-0.3,4.4l1.2,1.3l1,0.5l0.6,0.7l-4.2,1.7l-2.1-1.9l0.7-2.1l-1.2,0.4l-1,2.1
		l0.5,4.8l7.3,7.3l1.9,0.7l2.1,1.5l0.7,0.7l0.5,2.8l-0.3,1.2l-3,0.5l-1.5-0.1l-1.3,0.7l-0.4,2l1.2,1.5l2,1.6l0.2,0.8l1.3,2.6l1,1.4
		l0.5,1.6l-0.9,0.8l-8.7-0.8l-1.6,0.6l0.6,4.4l0.9,1.1l1.1,0.8l0.7,1.9l-0.8,4.7l-0.8,0.3l-5.1,1.2l-1.4-1l-1-1l-1-0.3l-3.6-0.2
		l-4.1-0.5l-5-1.4l-3.4-1.8l-0.7-0.6l-0.7-1.1l2.8-7.2l3.7-4.5l-0.5-1.7l1.2-1.2l1.7-4.3l1.3-12.5l-0.2-3.7l-0.7-2.7l-0.7-0.6
		l-0.9-0.7l0.7-4.4l0.8-9.5l0.4-0.9l0.7-1.1l0.8-1l1.8-1.8l1.2-4.1l1.3-7.8l-1.5-3l-0.4-1.1l0-1l1.3-2l4.5,0.4L430.6,1087.5
		L430.6,1087.5z M435.9,1009.4l11.6,1l2.3,3.8l3.8,0.8l6.1-4.5l6.1,2.3l3.8,6.8l5.3,3.8l6.8,6.1l7.5,3l4.5-5.3l3-4.5l6.1-0.8l7,0.9
		l0,0l-0.1,2.1l0.1,1.4l-0.8,2.2l-0.8,1.1l-0.8,0.8l-1.2,1l-0.8,1.3l1.4,4l2.5,5.4l0.5,2.2l-0.8,2.8l0.7,2.4l-0.8,9.3l-0.2,1.2
		l-0.7,1.4l-0.6,3.2l0.2,1.5l1,2.4l0.7,6l-1.6,2.8l0.1,1v1.5l1.5,5.9l2.4,4.9l0.4,1.3l0.5,3l0.1,2.8l1.1,1.5l0.2,3.4l-2,1.8l-5,2.4
		l-1.2-0.2l-0.4-1.3l-0.5-0.9l-1.2-0.2l-0.9,0.5l-0.8,0.8l-3.6,7.1l0.8,1.6l2,1.7l0.5,1l-2.6,8.2l-0.6,1.1l-0.4,1.1l-0.2,1.1
		l0.4,4.1l0.7,2.7l0.1,2.1l0.2,4.9l-0.1,1.4l-0.4,1.7l-0.5,1.2l-0.3,1l-0.1,2.6l0.7,1.8l1.5,2.6l1,0.8l2.1,0.9l1.5,0l1.1,0.1
		l2.4,0.2l1.2,0.3l3.7,2.3l0.2,5.4l-0.3,1l-0.7,0.5l-1.4-0.4l-3.9,1.3l-1.3,3.3l-0.2,3.5l3.3,2.5l5.7,5.4l0.4,3.4l-0.5,1.2l-2.4,1.6
		l-0.8,0.3l-1,0.5v1.5l2,3l2.2,2.5l0,0l-2.9-1.4l-1.3,0.1l-5.5,2.7l-0.5,2.2l-5.5,0.6l-0.3-2.1l-0.7-1.5l-1.3-1.6l-1.2-0.8l-1.8-0.2
		l-0.8-0.4l-3-5l-0.2-2.3l-1.9-0.7l-1.3,0.9l-1.7,1.7l-1.3,1.9l-0.5,2.1l-7.5-1.3l-2.4-0.6l-0.8-0.6l-2.6-0.1v0v-2.2l0,1.8l0,0
		l-0.7-0.1l-1-0.4l-1.5-1.5l-1.9,0.4l-1.7,1.2l0,0l-0.2-1.8l0.3-6.2l-2.6-6.2l-0.4-1.2l1.3-6.8l0.8-0.9l1.5-1l1.1-0.7l0.9-0.5
		l0.8-0.3l3.1-0.6v-3.9l-2.5-2.2l0.3-1.3l1.5-2.9l1.4-1.6l1.3,0.1l3.4,1.8v-7.1l-1.8-1.5l-1.1-0.7l-1.1-1.1l-0.6-1.5l-0.5-3.1
		l-0.1-2.8l0.2-7.4l1.4-3.4l0.9-0.4l3.4,0.2l1.1,0.2l0.8,1.1l3,2l1.1,0.3l0.5-0.7l-1-1.6l-1.8-0.5l-1.2-0.6l-1.5-1.3l-6.4-9.9
		l1.9-2.2l1.9-1.4l5.7-1.8l1.2,0.7l1.1,2l0,1.1l3.5,10.2l0.7,0.5l0.5-0.9l-0.3-3.9l-1.4-6.9l-0.5-2.2l-0.5-3.8l0.1-1.4l0.2-2
		l0.3-1.4l0.4-1.3l0.1-1.7l-0.7,0.4h-1.7l-1.3,0.6l-2.5,1.5l-4.9-0.7l-3-1.6l-1.6-2.3l0.3-1.3l2.1-3.3l5.8-5.9l1.6,0.1l1.3,0.3
		l4-0.9l2.7-1.4l2.1-1.9l0.7-0.8l0.9-10.3l-1.4,0.5l-1.4,9.2l-0.9,1.6l-2.8,1.4l-4,1.3l-1.3,0l-0.9-0.4l-1.5-1.2l-1.1-3.4l-1.3-1.8
		l-2.6-3l-1.5-0.8l-3.6-0.9l-3,0.9l-1.3,0.5l-2.4,3.8l0.5,2l0.7,0.7l0.5,3l-2.7,2.8l-2.6,1.9l-1.3,0.2l-2.7-0.6l-1.2-0.4l-2.6,0.1
		l-0.8,0.3l-1.9,0.9l-1,0.4l-0.7,0l-2.5-1.6l-4.6-0.9l-2-0.1l0.6-3.9l1.7-2.6l0.7-0.5l1.3-0.1l1.3,0.2l1.4-0.4l2.5-4.7l-1.2,1.1
		l-0.8,1.8l-0.8,1l-1.1,0.4l-4.6-0.5l-2.4-1.5l-3.6-4.4l-0.1-1.9l0.7-1.7l-0.1-3.4l-0.5-2l-1.3-3.7l-1.2-1.5l-0.6-1.3l-0.8-4.9
		l-0.8-5.7l1.8-5.6l4.4-11.9l1.8-2.3l1.6-3.4l-0.3-1.9l-1.1-2.8L435.9,1009.4L435.9,1009.4z"/>
	<path id="CL-ML_1_" class="st1" d="M541.4,823.9l-0.2-0.1l-1.1-1.3l-0.4-1.7l-0.3-1.4l-1.3-0.7l-0.9,0.1l-0.7,0.5l-3.1,3.9
		l-0.3,1.2l-0.1,1l-1.1,1.2l-1.6-0.2l-3.8-2.1l-0.8-0.8l-4.2-3.4l-3.2-1l-2.4-0.9l-1.4-0.9l-0.9-0.9l-0.5-1.2l-1-2.1l-2.5-0.4
		l-0.9,0.3l-1,0.4l-0.9-0.1l-2.1-0.5l-0.7-0.6l-0.3-0.9l-0.5-1.2l-3-3.1l-0.3,1.5l0.1,1.2l-2.8,3.1l-4.7-0.1l-1-0.3l-7.4-3.9
		l-5.6-4.9l-0.3-1.7l-0.6-0.7l-4.3-1.9l0,0l0.7-0.5l1.9-1.8l4.2-4.2l0.5-1l0.3-1.5l-0.1-1.7l-0.9-2.3l-1.6-4l0.1-1.3l0.9-1l1.6-0.9
		l2.7-2.3l2.5-6.2l1.4-3.9l0.6-1.1l1.6-2l1.2-0.8l1.5-0.9l2.2-2.1l0.8-1.7l0.4-2.1l0.1-1.4l0.1-1.7l0.1-1.4l0.3-2.6l2.1-4.7l0.9-0.9
		l0.8-1.2l0.9-2.8l0,0l1.1,0.5l0.7,0.5l2.2,2.7l1.3,2l5.3,2.2l3.9,1.2l5.9,0.4l5.9,1.1l-0.2-1.6l-0.1-1l3.2-2.8l6.9-0.5h1.1l1.5,0.4
		l10.8,3.2l0.8,0.5l1.6,1.7l4.3,3.3l7,0.7l2.3,0.2l0.3,0l0,0l-0.1,0.4l-0.1,1.8l0.1,1.7l0.2,1l-0.2,2.1l-0.7,1.1l-2.7,1.4l-1.2,0.2
		l-1.3,0.1l-0.9,0.2l-0.9,1.5l-0.1,1.2l0.7,1.4l0.7,0.5l4.3,2.7l1,7.1l-0.3,4.7l-0.6,1l0.4,1.8l1.3,3l1.2,3.6l-1.2,1l-1,1.8
		l-0.4,1.1l0.2,3.7l0.4,4.9l-1.1,2.9l-0.5,0.7l-1.1,0.6l-1.4-0.1l-3.3,0.1l-4.5,5l-0.5,3.5l0.8,2.2l-0.4,1.1l-9.5,3.4l-1.1-0.2
		L541.4,823.9z"/>
	<path id="CL-AP_1_" class="st1" d="M621.1,57.3h-5.8l-3.8,3.9l-0.8,4.5l-6,0.8l-6.1-3.7H588l-6,3.7l-6.1,3.8l-6.2,0.3l0,0l0.1-1.7
		l0.5-1l-0.1-1.7l-2-11l-0.6-1.7l-0.4-7.9l0.4-2.3l1.1-5.6l-1-1.5l-1-1l-1.3-1L565,34l0.6-0.5l0.9-0.5l1.5-0.1l3,0.3l1.9,0.1
		l0.9-0.1l1.8-0.3l5.5-2.1l1.2-0.8l3.5-3.7l0.9-1l1.8-3.7l0.8-2.2l0.2-1.3l-1.7-6.1l-0.4-0.8l-0.6-0.6l-0.5-0.7l0.2-1.7l0.4-1.1
		l0.8-1.2l1.7,0.2l3.3,0.3L600,0l0.5,5.1l4.3,3.8l0.8,0.7l1.1,2.1l0.4,1.1l-0.1,2.7l0.2,1.4l0.4,1.2l0.6,0.9l6.1,2l2.4,0.4l-0.1,1.2
		l-0.4,0.8l-1.4,0.9l-0.8,0.7l-0.4,1l0.5,1.2l0.8,0.8l0.9,1.1l0.6,6.6l0.5,0.9l0.8,1.1l0.4,0.7l0.3,1l-0.1,1l-0.3,2.1l0.1,2.1
		l0.2,1.9l0.9,3.4l1.9,4.2l0.7,1.5L621.1,57.3z"/>
	<path id="CL-LR_1_" class="st1" d="M510.2,1022.6l-7-0.9l-6.1,0.8l-3,4.5l-4.5,5.3l-7.5-3l-6.8-6l-5.3-3.8l-3.8-6.8l-6-2.3
		l-6.1,4.5l-3.8-0.8l-2.3-3.8l-11.6-1l0,0l0.8-4.7l2.6-3.1l-0.2-2.9l-0.4-1.3l-1-1.2l-0.5-1.1l0.8-1.2l0.6-0.7l7.3-3.6l3.4,0.6
		l1-1.5l-0.1-5.9l2.8-7.3l0.6-1.1l1.4-3.6l1.2-4l-0.8-1.5l0,0l1.3,0.4l1,0.2l1.1,0.1l1.2-0.1l1.2-0.6l1-1.1l0.8-1.3l1.9-2.4l5.6-0.1
		l0.9,0.7l0.4,2.8l1.1,2.1l1.1,1.3l1,0.7l1.1,0.2l1.2,0.1l1.1-0.1l2.9-0.5l1.1,0l5.7,2l1.8,0.9l1.5,0.2l3.7-1.4l1-0.5l0.8-0.8
		l1.1-1.1l1-0.5l1-0.2l6.2,0.5l1,0.3l1.2,0.8l1.1,1l2.2,1.5l2.6,0.1l0.8,0.1l0.5,1.2l0.2,1.2l0.1,1.1l0,0l-0.3,0.4l-0.7,2.6l0.1,5
		l1.4,6.4l1.4,4.8l-1.3,4.9l-3.2,2.1l-1.6,1.3l-1,4.5l1,2.1l2.8,2.8l0.7-1.2l1.3,0.9l0.2,1.9l-1.5,3.5l-0.5,0.9l-0.8,0.2l-0.9-0.9
		l-0.8-0.1L510.2,1022.6z"/>
	<path id="CL-BI_1_" class="st1" d="M537.7,854.2l-1,0.2l-1.5-1l-1,0.4l-1.5,0.4l-1.5-0.5l-1-1l-1.1-0.4l-1-0.4l-0.6,0.9l-0.8-0.1
		l-1.3-0.8l-0.3-1l-1.3-1l-1-0.9l-1.4,0.4v1v0.9v1.1l-0.2,1l-0.1,1.7l-0.9-0.4l-1.3,0.5h-1.4l-1.1,0.6l-1-0.8l-1-0.4l-1.7-0.6
		l-1.4,0.1l-1,0.5l-0.6,1.5l-0.9,0.9l-1.5,0.6l-1.7-2.5h-1.1l-1.7,2.7H502h-0.5h-0.8l-1.9-0.7l-1.5,1l-2.7-0.6l-0.5,0.5v0.3v-1.8
		l0.4-1.8l1.4-0.7l1.7-1.8l-0.4-1.2l-1-0.4l-1.1-0.8h-1.7l-1.8-1.3l-2.4-3.6l-0.8,1l-2.2-0.1l-0.7-1.4h-1l-0.6,1.3l-5.7-0.5l0.5-1.7
		l3.5,0.3l-0.5-1.2l0.8-1.3l-1.4-0.8l-0.6-2.6l0.3-1.2l-0.5-1.9l-2.2-2.3l-2.2-0.4l-0.9-1.8l-0.9-0.9l-1.2,0.5l-0.8-2.8l-0.5-1.5
		l0.8-1l-0.3-1.9h-1.8l-0.5-1.8v0.5l-0.2,0.5l-1.8,4.6l-1.5,5.3l-0.8,3.6l-0.6,0.7l-0.8,0.4h-1l-1.2-0.3l-0.9-0.9l-1.4-0.6l-0.6,9.2
		l-0.7,8.6l-1,3.7l-0.6,1.3l-0.9,1.2l-1,0.7l-1.6,0.7l-2.1,0.6l-1,0.2l-0.8,0l-1.7,0l-3.1-1.4l-1-0.6l-1.7-1.9l-1.6,1.2l-0.4,1.1
		l-1.5,7l0.4,0.9l1,0.9l0.9,1.1l0.7,1.5l0.2,1.8l-0.5,1.8l-1.2,1.2l-1.5,1.8l-0.5,1.3l0.7,5.9l2.4,2.6l2.8,4.7l1.8,4.1l0.9,2.5
		l0.5,2l-0.7,7.2l-0.5,1l-0.8,0.8l-0.6,1.2l0.6,2.5l0.2,0l0.8,0.4l1.2,0.6l3.2,2.1l10.3-9.9l0.6-1.2l0.3-0.9l0.3-1.5l-0.7-1.2
		l-1.4-0.7l-1.4-3.8l4.7-7l1.1-1.3l0.4-4.3l-0.5-1l-2.5-0.2l-0.9-1l3.6-4.4l5.4-0.8l1.7,0.9l1.7,1l1.4,0.8l5.4,1.3l3.3-0.1l2.4,2.7
		l1.1,2.6l2.4,3.4l1.8,1.1l0.8,0.3l1.3,0.2l1.4,0.3l1,0.5l3.4,2.8l0.5,1.2l1.3,1.5l0.8,0.6l5.9,1l4.8-0.5l1.2-0.3l1.4,0.5l1.3,1.8
		v1.7l-0.9,1.5l-0.1,1.6l0.2,1.1l0.8,2.9l0.5,1l1.4,1l0.6-1.3l0.5-1.2l0.6-0.7l3.4-1.6l2.5-1.3l0.7-0.6l0.6-1.7l4-0.9l8.9-0.2
		l2.5,0.4l0.1-1.9l-3.7-9.2l-1.1-2.2l-0.5-2.3l-0.9-2.2l-0.7-2.4l-0.1-1.8l0.2-1.6l0.7-0.8l1.3-1l0.6-6.3l-0.4-1.1l-1.1-1.4
		l-0.8-1.3l-1.1-3.7l0.5-1.6l1.4-1.6l0.7-2.1L537.7,854.2L537.7,854.2z"/>
	<path id="CL-NU_1_" class="st1" d="M473.3,800.5l-0.6,0.7l-0.8,6.7l-0.8,9.5l-1.4,3.7v-0.2l0.5,1.8h1.8l0.3,1.9l-0.8,1l0.5,1.5
		l0.8,2.8l1.2-0.5l0.9,0.9l0.9,1.8l2.2,0.4l2.2,2.3l0.5,1.9l-0.3,1.2l0.6,2.6l1.4,0.8l-0.8,1.3l0.5,1.2l-3.5-0.3l-0.5,1.7l5.7,0.5
		l0.6-1.3h1l0.7,1.4l2.2,0.1l0.8-1l2.4,3.6l1.8,1.3h1.7l1.1,0.8l1,0.4l0.4,1.2l-1.7,1.8l-1.4,0.7l-0.4,1.8v0v1.5l0.5-0.5l2.7,0.6
		l1.5-1l1.9-2h0.8l0.5,2.7h0.6h1.7h1l1.6-0.1l1.5-0.6l0.9-0.9l0.6-1.5l1-0.5l1.4-0.1l1.6,0.6l1,0.4l1,0.7l1.1-0.7h1.4l1.3-0.4
		l0.9,0.4l0.1-1.6l0.5-1v-1.1v-0.9v-1l1.1-0.4l1,0.9l1.3,1l0.3,1l1.3,0.7l0.8,0.1l0.6-0.9l1,0.4l1.1,0.4l1,1l1.5,0.5l1.5-0.4l1-0.4
		l1.5,1l1-0.2l0-0.2l-1.4-6.5l-1.5-6.1l1.9-4.8l3.2-9.1l0.8-2.9l0.7-0.4l-0.2-0.1l-1.1-1.3l-0.4-1.6l-0.3-1.4l-1.3-0.7l-0.9,0.1
		l-0.7,0.5l-3,3.8l-0.3,1.2l-0.1,1l-1.1,1.2l-1.6-0.2l-3.8-2.1l-0.8-0.8l-4.1-3.3l-3.2-0.9l-2.4-0.9l-1.4-0.9l-0.9-0.9l-0.5-1.2
		l-1-2.1l-2.5-0.4l-0.9,0.3l-1,0.4l-0.9-0.1l-2.1-0.5l-0.7-0.6l-0.3-0.9l-0.5-1.2l-3-3.1l-0.3,1.4l0.1,1.2l-2.8,3l-4.7-0.1l-1-0.3
		l-7.3-3.7l-5.6-4.8l-0.3-1.6l-0.6-0.6L473.3,800.5L473.3,800.5z"/>
</g>
<g id="volcanes">
	<polygon class="st3" points="500.1,1118.5 482.8,1148.5 517.4,1148.5 	"/>
	<polygon class="st3" points="676.5,230.5 659.2,260.5 693.8,260.5 	"/>
	<polygon class="st3" points="588.5,667 571.2,697 605.8,697 	"/>
	<polygon class="st3" points="560.5,764.3 543.2,794.3 577.8,794.3 	"/>
	<polygon class="st3" points="530.5,821.3 513.2,851.3 547.8,851.3 	"/>
	<polygon class="st3" points="530.5,853.3 513.2,883.3 547.8,883.3 	"/>
	<polygon class="st3" points="515.8,907.5 498.4,937.5 533.1,937.5 	"/>
	<polygon class="st3" points="501.8,945.5 484.4,975.5 519.1,975.5 	"/>
	<polygon class="st3" points="517.8,961.5 500.4,991.5 535.1,991.5 	"/>
	<polygon class="st3" points="508.1,1002.5 490.8,1032.5 525.4,1032.5 	"/>
	<polygon class="st3" points="483.1,1044.5 465.8,1074.5 500.4,1074.5 	"/>
	<polygon class="st4" points="484.1,1125.5 466.8,1155.5 501.4,1155.5 	"/>
	<polygon class="st3" points="470.1,1272.5 452.8,1302.5 487.4,1302.5 	"/>
</g>
<g id="forma">
	<path class="st5" d="M845.5,704.5H620.4c-3.3,0-6-2.7-6-6v-20c0-3.3,2.7-6,6-6h225.1c3.3,0,6,2.7,6,6v20
		C851.5,701.8,848.8,704.5,845.5,704.5z"/>
	<path class="st5" d="M882,266H709.4c-3.3,0-6-2.7-6-6v-16.5c0-3.3,2.7-6,6-6H882c3.3,0,6,2.7,6,6V260C888,263.3,885.3,266,882,266z
		"/>
	<path class="st5" d="M998,803H590.6c-3.3,0-6-2.7-6-6v-17.7c0-3.3,2.7-6,6-6H998c3.3,0,6,2.7,6,6V797
		C1004,800.3,1001.3,803,998,803z"/>
	<path class="st5" d="M798,857.9H583.8c-3.3,0-6-2.7-6-6v-16.5c0-3.3,2.7-6,6-6H798c3.3,0,6,2.7,6,6v16.5
		C804,855.2,801.3,857.9,798,857.9z"/>
	<path class="st5" d="M740,895.1H574.8c-3.3,0-6-2.7-6-6v-16.5c0-3.3,2.7-6,6-6H740c3.3,0,6,2.7,6,6v16.5
		C746,892.4,743.3,895.1,740,895.1z"/>
	<path class="st5" d="M735.4,944H562.8c-3.3,0-6-2.7-6-6v-16.5c0-3.3,2.7-6,6-6h172.6c3.3,0,6,2.7,6,6V938
		C741.4,941.3,738.7,944,735.4,944z"/>
	<path class="st5" d="M725.4,980H552.8c-3.3,0-6-2.7-6-6v-16.5c0-3.3,2.7-6,6-6h172.6c3.3,0,6,2.7,6,6V974
		C731.4,977.3,728.7,980,725.4,980z"/>
	<path class="st5" d="M857,1015H570.8c-3.3,0-6-2.7-6-6v-16.5c0-3.3,2.7-6,6-6H857c3.3,0,6,2.7,6,6v16.5
		C863,1012.3,860.3,1015,857,1015z"/>
	<path class="st5" d="M872,1049H553.8c-3.3,0-6-2.7-6-6v-16.5c0-3.3,2.7-6,6-6H872c3.3,0,6,2.7,6,6v16.5
		C878,1046.3,875.3,1049,872,1049z"/>
	<path class="st5" d="M723,1087H536.8c-3.3,0-6-2.7-6-6v-16.5c0-3.3,2.7-6,6-6H723c3.3,0,6,2.7,6,6v16.5
		C729,1084.3,726.3,1087,723,1087z"/>
	<path class="st5" d="M803,1136H560.8c-3.3,0-6-2.7-6-6v-16.5c0-3.3,2.7-6,6-6H803c3.3,0,6,2.7,6,6v16.5
		C809,1133.3,806.3,1136,803,1136z"/>
	<path class="st6" d="M756,1169.1H546.8c-3.3,0-6-2.7-6-6v-16.5c0-3.3,2.7-6,6-6H756c3.3,0,6,2.7,6,6v16.5
		C762,1166.4,759.3,1169.1,756,1169.1z"/>
	<path class="st5" d="M714.4,1311.7H541.8c-3.3,0-6-2.7-6-6v-16.5c0-3.3,2.7-6,6-6h172.6c3.3,0,6,2.7,6,6v16.5
		C720.4,1309,717.7,1311.7,714.4,1311.7z"/>
</g>
<g id="texto">
	<rect x="541.8" y="1286.9" class="st7" width="177.2" height="25.1"/>
	<text transform="matrix(1 0 0 1 541.8213 1303.1943)" class="st8 st9">13.Volcn Hudson</text>
	<rect x="548" y="1144.5" class="st7" width="221.3" height="25.1"/>
	<text transform="matrix(1 0 0 1 547.9688 1160.9795)" class="st10 st9">12. Volcn Chaitn</text>
	<rect x="562.8" y="1113.2" class="st7" width="245.2" height="25.1"/>
	<text transform="matrix(1 0 0 1 562.8213 1129.542)" class="st8 st9">11. Volcn Michimahuida</text>
	<rect x="537.6" y="1062.1" class="st7" width="221.3" height="25.1"/>
	<text transform="matrix(1 0 0 1 537.6426 1078.3873)" class="st8 st9">10. Volcn Calbuco</text>
	<rect x="553.2" y="1025.5" class="st7" width="318.8" height="25.1"/>
	<text transform="matrix(1 0 0 1 553.2119 1041.7993)" class="st8 st9">9. Volcn Puyehue-Cordn </text>
	<rect x="569.8" y="992" class="st7" width="318.8" height="17"/>
	<text transform="matrix(1 0 0 1 569.7544 1008.3029)" class="st8 st9">8. Volcn Mocho-Choshuenco </text>
	<rect x="553.5" y="957.8" class="st7" width="318.8" height="25.1"/>
	<text transform="matrix(1 0 0 1 553.5143 974.106)" class="st8 st9">7. Volcn Villarrica</text>
	<rect x="571.1" y="920.4" class="st7" width="284.5" height="25.1"/>
	<text transform="matrix(1 0 0 1 571.063 936.7759)" class="st8 st9">6. Volcn Llaima </text>
	<rect x="578.5" y="870.2" class="st7" width="284.5" height="25.1"/>
	<text transform="matrix(1 0 0 1 578.5411 886.5414)" class="st8 st9">5. Volcn Antuco</text>
	<rect x="584.1" y="834.9" class="st7" width="284.5" height="25.1"/>
	<text transform="matrix(1 0 0 1 584.0698 851.1897)" class="st8 st9">4. Nevados de Chilln</text>
	<rect x="601.9" y="778.3" class="st7" width="391.1" height="25.1"/>
	<text transform="matrix(1 0 0 1 601.8776 794.6215)" class="st8 st9">3. Volcn Descabezado Grande -Quizapu</text>
	<rect x="626.7" y="678.5" class="st7" width="284.5" height="25.1"/>
	<text transform="matrix(1 0 0 1 626.745 694.8761)" class="st8 st9">2. Volcn Tupungatito</text>
	<rect x="719.5" y="242.9" class="st7" width="284.5" height="25.1"/>
	<text transform="matrix(1 0 0 1 719.4572 259.2559)" class="st8 st9">1. Volcn Lascar</text>
</g>
<g id="texto_x5F_2_1_" class="st11">
	<rect x="541.8" y="1286.9" class="st12" width="177.2" height="25.1"/>
	<text transform="matrix(1 0 0 1 541.8213 1303.1943)" class="st13 st8 st9">13.Volcn Hudson</text>
	<rect x="548" y="1140.5" class="st12" width="221.3" height="25.1"/>
	<text transform="matrix(1 0 0 1 547.9688 1156.9795)" class="st13 st10 st9">12. Volcn Chaitn</text>
	<rect x="562.8" y="1113.2" class="st12" width="245.2" height="25.1"/>
	<text transform="matrix(1 0 0 1 562.8213 1129.542)" class="st13 st8 st9">11. Volcn Michimahuida</text>
	<rect x="537.6" y="1062.1" class="st12" width="221.3" height="25.1"/>
	<text transform="matrix(1 0 0 1 537.6426 1078.3873)" class="st13 st8 st9">10. Volcn Calbuco</text>
	<rect x="554.2" y="1018.5" class="st12" width="318.8" height="25.1"/>
	<text transform="matrix(1 0 0 1 554.2119 1034.7993)" class="st13 st8 st9">9. Volcn Puyehue-Cordn </text>
	<rect x="575.8" y="982" class="st12" width="318.8" height="25.1"/>
	<text transform="matrix(1 0 0 1 575.7544 998.3029)" class="st13 st8 st9">8. Volcn Mocho-Choshuenco </text>
	<rect x="553.5" y="957.8" class="st12" width="318.8" height="25.1"/>
	<text transform="matrix(1 0 0 1 553.5143 974.106)" class="st13 st8 st9">7. Volcn Villarrica</text>
	<rect x="566.1" y="884.4" class="st12" width="284.5" height="25.1"/>
	<text transform="matrix(1 0 0 1 566.063 900.7759)" class="st13 st8 st9">7. Volcn Copahue</text>
	<rect x="592.5" y="793.2" class="st12" width="284.5" height="25.1"/>
	<text transform="matrix(1 0 0 1 592.5411 809.5414)" class="st13 st8 st9">5. Laguna del Maule</text>
	<rect x="595.1" y="757.9" class="st12" width="284.5" height="25.1"/>
	<text transform="matrix(1 0 0 1 595.0698 774.1897)" class="st13 st8 st9">4. Volcn Planchn-Peteroa</text>
	<rect x="612.9" y="685.3" class="st12" width="391.1" height="25.1"/>
	<text transform="matrix(1 0 0 1 612.8776 701.6215)" class="st13 st8 st9">3. Volcn San Jos</text>
	<rect x="651.7" y="34.5" class="st12" width="284.5" height="25.1"/>
	<text transform="matrix(1 0 0 1 651.745 50.8761)" class="st13 st8 st9">2. Volcn Parinacota</text>
	<rect x="631.5" y="9.9" class="st12" width="284.5" height="25.1"/>
	<text transform="matrix(1 0 0 1 631.4572 26.2559)" class="st13 st8 st9">1. Volcn Taapaca </text>
	<rect x="595.5" y="857.6" class="st12" width="284.5" height="25.1"/>
	<text transform="matrix(1 0 0 1 595.5306 873.9461)" class="st13 st8 st9">6. Volcn Callaqui</text>
</g>
<g id="volcan_x5F_2" class="st11">
	<polygon class="st14" points="598.6,5 581.2,35 615.9,35 	"/>
	<polygon class="st14" points="610.3,16.5 593,46.5 627.7,46.5 	"/>
	<polygon class="st14" points="583.8,673.9 566.4,703.9 601.1,703.9 	"/>
	<polygon class="st14" points="561.5,746.7 544.2,776.7 578.9,776.7 	"/>
	<polygon class="st14" points="559.3,778.9 542,808.9 576.6,808.9 	"/>
	<polygon class="st14" points="540.3,859.2 523,889.2 557.6,889.2 	"/>
	<polygon class="st14" points="529.3,866.2 512,896.2 546.6,896.2 	"/>
</g>
</svg>
